%TF.GenerationSoftware,KiCad,Pcbnew,(7.0.0)*%
%TF.CreationDate,2024-02-16T21:37:32+01:00*%
%TF.ProjectId,tinyv pcb FFC,74696e79-7620-4706-9362-204646432e6b,rev?*%
%TF.SameCoordinates,Original*%
%TF.FileFunction,Legend,Bot*%
%TF.FilePolarity,Positive*%
%FSLAX46Y46*%
G04 Gerber Fmt 4.6, Leading zero omitted, Abs format (unit mm)*
G04 Created by KiCad (PCBNEW (7.0.0)) date 2024-02-16 21:37:32*
%MOMM*%
%LPD*%
G01*
G04 APERTURE LIST*
%ADD10C,0.150000*%
%ADD11C,0.120000*%
G04 APERTURE END LIST*
D10*
X169212201Y-92236130D02*
X169212201Y-92950416D01*
X169212201Y-92950416D02*
X169164582Y-93093273D01*
X169164582Y-93093273D02*
X169069344Y-93188511D01*
X169069344Y-93188511D02*
X168926487Y-93236130D01*
X168926487Y-93236130D02*
X168831249Y-93236130D01*
X170164582Y-93236130D02*
X169688392Y-93236130D01*
X169688392Y-93236130D02*
X169688392Y-92236130D01*
X171069344Y-93140892D02*
X171021725Y-93188511D01*
X171021725Y-93188511D02*
X170878868Y-93236130D01*
X170878868Y-93236130D02*
X170783630Y-93236130D01*
X170783630Y-93236130D02*
X170640773Y-93188511D01*
X170640773Y-93188511D02*
X170545535Y-93093273D01*
X170545535Y-93093273D02*
X170497916Y-92998035D01*
X170497916Y-92998035D02*
X170450297Y-92807559D01*
X170450297Y-92807559D02*
X170450297Y-92664702D01*
X170450297Y-92664702D02*
X170497916Y-92474226D01*
X170497916Y-92474226D02*
X170545535Y-92378988D01*
X170545535Y-92378988D02*
X170640773Y-92283750D01*
X170640773Y-92283750D02*
X170783630Y-92236130D01*
X170783630Y-92236130D02*
X170878868Y-92236130D01*
X170878868Y-92236130D02*
X171021725Y-92283750D01*
X171021725Y-92283750D02*
X171069344Y-92331369D01*
X171783630Y-92236130D02*
X171783630Y-92950416D01*
X171783630Y-92950416D02*
X171736011Y-93093273D01*
X171736011Y-93093273D02*
X171640773Y-93188511D01*
X171640773Y-93188511D02*
X171497916Y-93236130D01*
X171497916Y-93236130D02*
X171402678Y-93236130D01*
X172736011Y-93236130D02*
X172259821Y-93236130D01*
X172259821Y-93236130D02*
X172259821Y-92236130D01*
X173640773Y-93140892D02*
X173593154Y-93188511D01*
X173593154Y-93188511D02*
X173450297Y-93236130D01*
X173450297Y-93236130D02*
X173355059Y-93236130D01*
X173355059Y-93236130D02*
X173212202Y-93188511D01*
X173212202Y-93188511D02*
X173116964Y-93093273D01*
X173116964Y-93093273D02*
X173069345Y-92998035D01*
X173069345Y-92998035D02*
X173021726Y-92807559D01*
X173021726Y-92807559D02*
X173021726Y-92664702D01*
X173021726Y-92664702D02*
X173069345Y-92474226D01*
X173069345Y-92474226D02*
X173116964Y-92378988D01*
X173116964Y-92378988D02*
X173212202Y-92283750D01*
X173212202Y-92283750D02*
X173355059Y-92236130D01*
X173355059Y-92236130D02*
X173450297Y-92236130D01*
X173450297Y-92236130D02*
X173593154Y-92283750D01*
X173593154Y-92283750D02*
X173640773Y-92331369D01*
X174355059Y-92236130D02*
X174355059Y-92950416D01*
X174355059Y-92950416D02*
X174307440Y-93093273D01*
X174307440Y-93093273D02*
X174212202Y-93188511D01*
X174212202Y-93188511D02*
X174069345Y-93236130D01*
X174069345Y-93236130D02*
X173974107Y-93236130D01*
X175307440Y-93236130D02*
X174831250Y-93236130D01*
X174831250Y-93236130D02*
X174831250Y-92236130D01*
X176212202Y-93140892D02*
X176164583Y-93188511D01*
X176164583Y-93188511D02*
X176021726Y-93236130D01*
X176021726Y-93236130D02*
X175926488Y-93236130D01*
X175926488Y-93236130D02*
X175783631Y-93188511D01*
X175783631Y-93188511D02*
X175688393Y-93093273D01*
X175688393Y-93093273D02*
X175640774Y-92998035D01*
X175640774Y-92998035D02*
X175593155Y-92807559D01*
X175593155Y-92807559D02*
X175593155Y-92664702D01*
X175593155Y-92664702D02*
X175640774Y-92474226D01*
X175640774Y-92474226D02*
X175688393Y-92378988D01*
X175688393Y-92378988D02*
X175783631Y-92283750D01*
X175783631Y-92283750D02*
X175926488Y-92236130D01*
X175926488Y-92236130D02*
X176021726Y-92236130D01*
X176021726Y-92236130D02*
X176164583Y-92283750D01*
X176164583Y-92283750D02*
X176212202Y-92331369D01*
X176926488Y-92236130D02*
X176926488Y-92950416D01*
X176926488Y-92950416D02*
X176878869Y-93093273D01*
X176878869Y-93093273D02*
X176783631Y-93188511D01*
X176783631Y-93188511D02*
X176640774Y-93236130D01*
X176640774Y-93236130D02*
X176545536Y-93236130D01*
X177878869Y-93236130D02*
X177402679Y-93236130D01*
X177402679Y-93236130D02*
X177402679Y-92236130D01*
X178783631Y-93140892D02*
X178736012Y-93188511D01*
X178736012Y-93188511D02*
X178593155Y-93236130D01*
X178593155Y-93236130D02*
X178497917Y-93236130D01*
X178497917Y-93236130D02*
X178355060Y-93188511D01*
X178355060Y-93188511D02*
X178259822Y-93093273D01*
X178259822Y-93093273D02*
X178212203Y-92998035D01*
X178212203Y-92998035D02*
X178164584Y-92807559D01*
X178164584Y-92807559D02*
X178164584Y-92664702D01*
X178164584Y-92664702D02*
X178212203Y-92474226D01*
X178212203Y-92474226D02*
X178259822Y-92378988D01*
X178259822Y-92378988D02*
X178355060Y-92283750D01*
X178355060Y-92283750D02*
X178497917Y-92236130D01*
X178497917Y-92236130D02*
X178593155Y-92236130D01*
X178593155Y-92236130D02*
X178736012Y-92283750D01*
X178736012Y-92283750D02*
X178783631Y-92331369D01*
%TO.C,MX4*%
X128689824Y-27286030D02*
X128689824Y-27756030D01*
X128689824Y-24206030D02*
X128689824Y-24436030D01*
X128189824Y-28256030D02*
X123625000Y-28256030D01*
X127139824Y-24206030D02*
X128689824Y-24206030D01*
X119739824Y-24206030D02*
X125639824Y-24206030D01*
X117739824Y-29856030D02*
X117739824Y-30096030D01*
X117739824Y-27006030D02*
X117739824Y-26206030D01*
X128189824Y-28256030D02*
G75*
G03*
X128689824Y-27756030I-1J500001D01*
G01*
X123625000Y-28256030D02*
G75*
G03*
X121330678Y-30096030I-863J-2349335D01*
G01*
X119739824Y-24206030D02*
G75*
G03*
X117739824Y-26206030I5J-2000005D01*
G01*
D11*
%TO.C,D21*%
X67505464Y-73647500D02*
X67505464Y-69787500D01*
X69505464Y-73647500D02*
X67505464Y-73647500D01*
X69505464Y-73647500D02*
X69505464Y-69787500D01*
%TO.C,D34*%
X119650000Y-91903750D02*
X119650000Y-88043750D01*
X121650000Y-91903750D02*
X119650000Y-91903750D01*
X121650000Y-91903750D02*
X121650000Y-88043750D01*
D10*
%TO.C,MX23*%
X109639824Y-65386030D02*
X109639824Y-65856030D01*
X109639824Y-62306030D02*
X109639824Y-62536030D01*
X109139824Y-66356030D02*
X104575000Y-66356030D01*
X108089824Y-62306030D02*
X109639824Y-62306030D01*
X100689824Y-62306030D02*
X106589824Y-62306030D01*
X98689824Y-67956030D02*
X98689824Y-68196030D01*
X98689824Y-65106030D02*
X98689824Y-64306030D01*
X109139824Y-66356030D02*
G75*
G03*
X109639824Y-65856030I-1J500001D01*
G01*
X104575000Y-66356030D02*
G75*
G03*
X102280678Y-68196030I-863J-2349335D01*
G01*
X100689824Y-62306030D02*
G75*
G03*
X98689824Y-64306030I5J-2000005D01*
G01*
D11*
%TO.C,D8*%
X203787500Y-33960000D02*
X203787500Y-30100000D01*
X205787500Y-33960000D02*
X203787500Y-33960000D01*
X205787500Y-33960000D02*
X205787500Y-30100000D01*
D10*
%TO.C,MX12*%
X88202355Y-46743855D02*
X88235140Y-47212710D01*
X87987505Y-43671357D02*
X88003549Y-43900797D01*
X87771237Y-47746370D02*
X83217532Y-48064796D01*
X86441281Y-43779480D02*
X87987505Y-43671357D01*
X79059307Y-44295678D02*
X84944935Y-43884114D01*
X77458303Y-50071428D02*
X77475044Y-50310843D01*
X77259497Y-47228370D02*
X77203692Y-46430319D01*
X87771237Y-47746369D02*
G75*
G03*
X88235139Y-47212710I-34880J498782D01*
G01*
X83217532Y-48064796D02*
G75*
G03*
X81057151Y-50060358I163018J-2343669D01*
G01*
X79059307Y-44295678D02*
G75*
G03*
X77203693Y-46430319I139518J-1995132D01*
G01*
D11*
%TO.C,D33*%
X106950000Y-91110000D02*
X106950000Y-87250000D01*
X108950000Y-91110000D02*
X106950000Y-91110000D01*
X108950000Y-91110000D02*
X108950000Y-87250000D01*
%TO.C,D23*%
X106950000Y-72060000D02*
X106950000Y-68200000D01*
X108950000Y-72060000D02*
X106950000Y-72060000D01*
X108950000Y-72060000D02*
X108950000Y-68200000D01*
D10*
%TO.C,MX34*%
X128689824Y-84436030D02*
X128689824Y-84906030D01*
X128689824Y-81356030D02*
X128689824Y-81586030D01*
X128189824Y-85406030D02*
X123625000Y-85406030D01*
X127139824Y-81356030D02*
X128689824Y-81356030D01*
X119739824Y-81356030D02*
X125639824Y-81356030D01*
X117739824Y-87006030D02*
X117739824Y-87246030D01*
X117739824Y-84156030D02*
X117739824Y-83356030D01*
X128189824Y-85406030D02*
G75*
G03*
X128689824Y-84906030I-1J500001D01*
G01*
X123625000Y-85406030D02*
G75*
G03*
X121330678Y-87246030I-863J-2349335D01*
G01*
X119739824Y-81356030D02*
G75*
G03*
X117739824Y-83356030I5J-2000005D01*
G01*
D11*
%TO.C,D2*%
X84421634Y-34808148D02*
X84421634Y-30948148D01*
X86421634Y-34808148D02*
X84421634Y-34808148D01*
X86421634Y-34808148D02*
X86421634Y-30948148D01*
D10*
%TO.C,MX8*%
X206477324Y-27286030D02*
X206477324Y-27756030D01*
X206477324Y-24206030D02*
X206477324Y-24436030D01*
X205977324Y-28256030D02*
X201412500Y-28256030D01*
X204927324Y-24206030D02*
X206477324Y-24206030D01*
X197527324Y-24206030D02*
X203427324Y-24206030D01*
X195527324Y-29856030D02*
X195527324Y-30096030D01*
X195527324Y-27006030D02*
X195527324Y-26206030D01*
X205977324Y-28256030D02*
G75*
G03*
X206477324Y-27756030I-1J500001D01*
G01*
X201412500Y-28256030D02*
G75*
G03*
X199118178Y-30096030I-863J-2349335D01*
G01*
X197527324Y-24206030D02*
G75*
G03*
X195527324Y-26206030I5J-2000005D01*
G01*
D11*
%TO.C,SW1*%
X71776250Y-81208750D02*
X71776250Y-79128750D01*
X70506250Y-82888750D02*
X70996250Y-82398750D01*
X70506250Y-82888750D02*
X67606250Y-82888750D01*
X70506250Y-77448750D02*
X70996250Y-77938750D01*
X70506250Y-77448750D02*
X67606250Y-77448750D01*
X67606250Y-82888750D02*
X67116250Y-82398750D01*
X67606250Y-77448750D02*
X67116250Y-77938750D01*
X66336250Y-81208750D02*
X66336250Y-79128750D01*
D10*
%TO.C,MX40*%
X243606464Y-87729406D02*
X243541052Y-88194832D01*
X244035117Y-84679380D02*
X244003107Y-84907142D01*
X242976332Y-88620379D02*
X238455932Y-87985079D01*
X242500201Y-84463662D02*
X244035117Y-84679380D01*
X235172218Y-83433781D02*
X241014799Y-84254902D01*
X232405354Y-88750449D02*
X232371952Y-88988114D01*
X232801997Y-85928185D02*
X232913335Y-85135971D01*
X242976332Y-88620378D02*
G75*
G03*
X243541052Y-88194832I69586J495134D01*
G01*
X238455932Y-87985079D02*
G75*
G03*
X235927861Y-89487864I-327818J-2326351D01*
G01*
X235172218Y-83433781D02*
G75*
G03*
X232913336Y-85135971I-278342J-1980542D01*
G01*
D11*
%TO.C,J7*%
X155837500Y-60693750D02*
X155837500Y-52393750D01*
X157577500Y-60693750D02*
X155837500Y-60693750D01*
X161637500Y-60693750D02*
X160297500Y-60693750D01*
X161637500Y-59203750D02*
X161637500Y-60693750D01*
X161637500Y-59203750D02*
X162837500Y-59203750D01*
X161637500Y-53883750D02*
X161637500Y-52393750D01*
X155837500Y-52393750D02*
X157577500Y-52393750D01*
X161637500Y-52393750D02*
X160297500Y-52393750D01*
%TO.C,D28*%
X203787500Y-72060000D02*
X203787500Y-68200000D01*
X205787500Y-72060000D02*
X203787500Y-72060000D01*
X205787500Y-72060000D02*
X205787500Y-68200000D01*
D10*
%TO.C,MX15*%
X147739824Y-46336030D02*
X147739824Y-46806030D01*
X147739824Y-43256030D02*
X147739824Y-43486030D01*
X147239824Y-47306030D02*
X142675000Y-47306030D01*
X146189824Y-43256030D02*
X147739824Y-43256030D01*
X138789824Y-43256030D02*
X144689824Y-43256030D01*
X136789824Y-48906030D02*
X136789824Y-49146030D01*
X136789824Y-46056030D02*
X136789824Y-45256030D01*
X147239824Y-47306030D02*
G75*
G03*
X147739824Y-46806030I-1J500001D01*
G01*
X142675000Y-47306030D02*
G75*
G03*
X140380678Y-49146030I-863J-2349335D01*
G01*
X138789824Y-43256030D02*
G75*
G03*
X136789824Y-45256030I5J-2000005D01*
G01*
%TO.C,MX27*%
X187427324Y-65386030D02*
X187427324Y-65856030D01*
X187427324Y-62306030D02*
X187427324Y-62536030D01*
X186927324Y-66356030D02*
X182362500Y-66356030D01*
X185877324Y-62306030D02*
X187427324Y-62306030D01*
X178477324Y-62306030D02*
X184377324Y-62306030D01*
X176477324Y-67956030D02*
X176477324Y-68196030D01*
X176477324Y-65106030D02*
X176477324Y-64306030D01*
X186927324Y-66356030D02*
G75*
G03*
X187427324Y-65856030I-1J500001D01*
G01*
X182362500Y-66356030D02*
G75*
G03*
X180068178Y-68196030I-863J-2349335D01*
G01*
X178477324Y-62306030D02*
G75*
G03*
X176477324Y-64306030I5J-2000005D01*
G01*
%TO.C,MX1*%
X64351340Y-29782316D02*
X64416751Y-30247742D01*
X63922687Y-26732290D02*
X63954697Y-26960052D01*
X63991204Y-30812462D02*
X59470804Y-31447763D01*
X62387771Y-26948008D02*
X63922687Y-26732290D01*
X55059788Y-27977889D02*
X60902369Y-27156768D01*
X53865579Y-33851250D02*
X53898981Y-34088914D01*
X53468936Y-31028986D02*
X53357598Y-30236772D01*
X63991204Y-30812461D02*
G75*
G03*
X64416750Y-30247742I-69588J495134D01*
G01*
X59470804Y-31447764D02*
G75*
G03*
X57454889Y-33589164I326110J-2326591D01*
G01*
X55059788Y-27977890D02*
G75*
G03*
X53357598Y-30236772I278351J-1980540D01*
G01*
D11*
%TO.C,Q1*%
X77760000Y-77972814D02*
X77760000Y-77322814D01*
X77760000Y-77972814D02*
X77760000Y-78622814D01*
X74640000Y-77972814D02*
X74640000Y-76297814D01*
X74640000Y-77972814D02*
X74640000Y-78622814D01*
%TO.C,G\u002A\u002A\u002A*%
G36*
X110222464Y-57908798D02*
G01*
X110079768Y-58051494D01*
X109937071Y-57908798D01*
X110079768Y-57766101D01*
X110222464Y-57908798D01*
G37*
G36*
X93289131Y-57290446D02*
G01*
X93333780Y-57376287D01*
X93098869Y-57480708D01*
X92947783Y-57460112D01*
X92908607Y-57290446D01*
X92950436Y-57256290D01*
X93289131Y-57290446D01*
G37*
G36*
X98793830Y-54484966D02*
G01*
X100627623Y-54685386D01*
X104086509Y-55118992D01*
X100321892Y-55158277D01*
X98844517Y-55155149D01*
X97580660Y-55110253D01*
X96733470Y-55026979D01*
X96379646Y-54910153D01*
X96335393Y-54660963D01*
X96677318Y-54471188D01*
X97486929Y-54413044D01*
X98793830Y-54484966D01*
G37*
G36*
X98022388Y-56355636D02*
G01*
X98997925Y-56403041D01*
X99687107Y-56486207D01*
X99948307Y-56605572D01*
X99732766Y-56825368D01*
X99163476Y-57006216D01*
X98878292Y-57039945D01*
X97968579Y-57068309D01*
X96951678Y-57027653D01*
X96535559Y-56997405D01*
X95452863Y-56937405D01*
X94580340Y-56912402D01*
X94497357Y-56911282D01*
X93928711Y-56823066D01*
X93812352Y-56624528D01*
X94089251Y-56514876D01*
X94793929Y-56423613D01*
X95778763Y-56366360D01*
X96902125Y-56343555D01*
X98022388Y-56355636D01*
G37*
G36*
X108583930Y-52275313D02*
G01*
X108714344Y-52424921D01*
X108355142Y-52710071D01*
X108098889Y-52826990D01*
X107330889Y-53092262D01*
X106392089Y-53352502D01*
X106009530Y-53431113D01*
X105015304Y-53564083D01*
X103824098Y-53661706D01*
X102563458Y-53721015D01*
X101360932Y-53739040D01*
X100344069Y-53712814D01*
X99640416Y-53639369D01*
X99377521Y-53515736D01*
X99377521Y-53514953D01*
X99550307Y-53230847D01*
X100107714Y-53044741D01*
X101110576Y-52945492D01*
X102619726Y-52921960D01*
X102663876Y-52922147D01*
X104057331Y-52869522D01*
X105486100Y-52725276D01*
X106647558Y-52519636D01*
X107120678Y-52412440D01*
X108030506Y-52268677D01*
X108583930Y-52275313D01*
G37*
G36*
X75401692Y-40642506D02*
G01*
X75548662Y-40865147D01*
X75700502Y-41161391D01*
X76432776Y-42106289D01*
X77549080Y-42903962D01*
X78343798Y-43453212D01*
X79160715Y-44218486D01*
X79746523Y-44985852D01*
X79970779Y-45609573D01*
X79967694Y-45656537D01*
X79745585Y-45768198D01*
X79167640Y-45451310D01*
X78227252Y-44702436D01*
X77722451Y-44307586D01*
X76555433Y-43552121D01*
X75404487Y-42963196D01*
X75070517Y-42821951D01*
X73873365Y-42301195D01*
X73092831Y-41918458D01*
X72635725Y-41614679D01*
X72408853Y-41330795D01*
X72319023Y-41007746D01*
X72368781Y-40642506D01*
X73692127Y-40642506D01*
X73746581Y-40778895D01*
X74137060Y-40927899D01*
X74340912Y-40886831D01*
X74405610Y-40642506D01*
X74347196Y-40564564D01*
X73960677Y-40357112D01*
X73896962Y-40365281D01*
X73692127Y-40642506D01*
X72368781Y-40642506D01*
X72384415Y-40527751D01*
X72944658Y-39925047D01*
X73345430Y-39699380D01*
X74201577Y-39538335D01*
X74927233Y-39923763D01*
X75401692Y-40642506D01*
G37*
G36*
X168570054Y-27455023D02*
G01*
X168593785Y-27719016D01*
X168317997Y-28335779D01*
X168221383Y-28491537D01*
X167654756Y-29132722D01*
X166798536Y-29904858D01*
X165797329Y-30673817D01*
X165383484Y-30959984D01*
X164138905Y-31787913D01*
X162500730Y-32847196D01*
X160536108Y-34096623D01*
X158312186Y-35494981D01*
X155896112Y-37001060D01*
X153355035Y-38573648D01*
X150756102Y-40171532D01*
X148166462Y-41753502D01*
X145653262Y-43278346D01*
X143283650Y-44704852D01*
X141124774Y-45991808D01*
X139243782Y-47098004D01*
X137707822Y-47982227D01*
X136584043Y-48603266D01*
X136019878Y-48932189D01*
X135123044Y-49575164D01*
X134100128Y-50456609D01*
X132873545Y-51644996D01*
X131365713Y-53208798D01*
X130363282Y-54250454D01*
X128911183Y-55719531D01*
X127226574Y-57392882D01*
X125408786Y-59172662D01*
X123557148Y-60961024D01*
X121770989Y-62660126D01*
X121292353Y-63111883D01*
X119781009Y-64545419D01*
X118429147Y-65838242D01*
X117288187Y-66940455D01*
X116409551Y-67802163D01*
X115844660Y-68373469D01*
X115644936Y-68604477D01*
X115649591Y-68624926D01*
X115924272Y-68894528D01*
X116492519Y-69274052D01*
X116726266Y-69422598D01*
X117539610Y-70027592D01*
X118347575Y-70724901D01*
X118675854Y-71045501D01*
X119121445Y-71617712D01*
X119313713Y-72254125D01*
X119355049Y-73206999D01*
X119354734Y-73253909D01*
X119311154Y-74058977D01*
X119202356Y-75302780D01*
X119040297Y-76869102D01*
X118836934Y-78641728D01*
X118604226Y-80504442D01*
X118555225Y-80883903D01*
X118341967Y-82619515D01*
X118170549Y-84154605D01*
X118049986Y-85397942D01*
X117989293Y-86258295D01*
X117997486Y-86644434D01*
X118194495Y-86813118D01*
X118845898Y-87141714D01*
X119832553Y-87543416D01*
X121034465Y-87966010D01*
X122150937Y-88342242D01*
X123133413Y-88722130D01*
X123792184Y-89072151D01*
X124252055Y-89461323D01*
X124637834Y-89958664D01*
X124829579Y-90248403D01*
X125200842Y-90866786D01*
X125348307Y-91207314D01*
X125318946Y-91242738D01*
X124901647Y-91165636D01*
X124001267Y-90824081D01*
X122631746Y-90223711D01*
X120807024Y-89370165D01*
X119957505Y-89005954D01*
X118332386Y-88514353D01*
X116818956Y-88303265D01*
X115589064Y-88404492D01*
X115497191Y-88433932D01*
X114867398Y-88731971D01*
X113969424Y-89242568D01*
X112965824Y-89874623D01*
X112647403Y-90081569D01*
X111776266Y-90608740D01*
X111132816Y-90940234D01*
X110837891Y-91011490D01*
X110777550Y-90701221D01*
X111040122Y-90114259D01*
X111576659Y-89415854D01*
X112286938Y-88732606D01*
X113070731Y-88191112D01*
X113385941Y-88013451D01*
X114581973Y-87152554D01*
X115398047Y-86134635D01*
X115916086Y-84827106D01*
X116218014Y-83097377D01*
X116325793Y-81883573D01*
X116427095Y-80295933D01*
X116509696Y-78548482D01*
X116562233Y-76847520D01*
X116584843Y-75571547D01*
X116572606Y-74221460D01*
X116472958Y-73259057D01*
X116245294Y-72578172D01*
X115849012Y-72072642D01*
X115243509Y-71636300D01*
X114388182Y-71162982D01*
X113163518Y-70513299D01*
X112192430Y-71242608D01*
X111267469Y-71868510D01*
X109804554Y-72669824D01*
X108338986Y-73293269D01*
X107085392Y-73638170D01*
X105898900Y-73827897D01*
X107204502Y-75153431D01*
X107764440Y-75760774D01*
X108333787Y-76589947D01*
X108510105Y-77285499D01*
X108472128Y-77507539D01*
X108216354Y-78109348D01*
X107700271Y-79016666D01*
X106901293Y-80265711D01*
X105796836Y-81892700D01*
X104364314Y-83933853D01*
X103452942Y-85223919D01*
X102401355Y-86728374D01*
X101500282Y-88035377D01*
X100795186Y-89078281D01*
X100331526Y-89790438D01*
X100154764Y-90105202D01*
X100153428Y-90113989D01*
X100374462Y-90296084D01*
X101105122Y-90404688D01*
X102374150Y-90444190D01*
X103394495Y-90475419D01*
X104563921Y-90612723D01*
X105257349Y-90847752D01*
X105549267Y-91101956D01*
X106025524Y-91684256D01*
X106460540Y-92358144D01*
X106745015Y-92947971D01*
X106769652Y-93278090D01*
X106593461Y-93265939D01*
X106025281Y-93066243D01*
X105225478Y-92708207D01*
X104767837Y-92509527D01*
X103481688Y-92147432D01*
X102196477Y-92020087D01*
X101044790Y-92120969D01*
X100159211Y-92443557D01*
X99672325Y-92981331D01*
X99634071Y-93080483D01*
X99470057Y-93359202D01*
X99268060Y-93234650D01*
X98911676Y-92657231D01*
X98388252Y-91999167D01*
X97776398Y-91729703D01*
X97729201Y-91733270D01*
X97183009Y-91895411D01*
X96265656Y-92263401D01*
X95092998Y-92788204D01*
X93780892Y-93420783D01*
X93377818Y-93621227D01*
X91846749Y-94363824D01*
X90774677Y-94841272D01*
X90128064Y-95061990D01*
X89873371Y-95034396D01*
X89977058Y-94766907D01*
X90405587Y-94267941D01*
X91525210Y-93242043D01*
X93316213Y-92031094D01*
X95167429Y-91203934D01*
X95168942Y-91203444D01*
X95772914Y-90983506D01*
X96286892Y-90708873D01*
X96796787Y-90298726D01*
X97388512Y-89672244D01*
X98147980Y-88748609D01*
X99161103Y-87447000D01*
X100379262Y-85851081D01*
X101921032Y-83771293D01*
X103126623Y-82053606D01*
X104020945Y-80658341D01*
X104628907Y-79545824D01*
X104975418Y-78676376D01*
X105085386Y-78010320D01*
X105075796Y-77688191D01*
X104939216Y-77008514D01*
X104570002Y-76409400D01*
X103878446Y-75773296D01*
X102774838Y-74982652D01*
X102172331Y-74626198D01*
X100811513Y-74084120D01*
X99011726Y-73648709D01*
X97726094Y-73371910D01*
X95510532Y-72787842D01*
X93235412Y-72076855D01*
X91056616Y-71292674D01*
X89130023Y-70489024D01*
X87611515Y-69719627D01*
X87213263Y-69485998D01*
X84781429Y-67945714D01*
X82820792Y-66465412D01*
X81259084Y-64977524D01*
X80024038Y-63414484D01*
X79043386Y-61708724D01*
X78659756Y-60878615D01*
X78011948Y-59326590D01*
X77348945Y-57589097D01*
X76719990Y-55807618D01*
X76174327Y-54123636D01*
X75761202Y-52678632D01*
X75529858Y-51614089D01*
X75498928Y-51424205D01*
X75347293Y-50823984D01*
X75074528Y-50237903D01*
X74611295Y-49560258D01*
X73888259Y-48685346D01*
X72836083Y-47507465D01*
X72748078Y-47410633D01*
X71213777Y-45739269D01*
X69960465Y-44431282D01*
X68899874Y-43422000D01*
X67943737Y-42646751D01*
X67003788Y-42040865D01*
X65991757Y-41539669D01*
X64819380Y-41078492D01*
X63398388Y-40592662D01*
X62870128Y-40418141D01*
X61549298Y-39974754D01*
X60678466Y-39657081D01*
X60187487Y-39426034D01*
X60006215Y-39242526D01*
X60018442Y-39205806D01*
X67303999Y-39205806D01*
X68708135Y-40494942D01*
X69015363Y-40781298D01*
X69590475Y-41374084D01*
X69762038Y-41690501D01*
X69565658Y-41784079D01*
X69492849Y-41785174D01*
X69257275Y-41858526D01*
X69367536Y-42120493D01*
X69857272Y-42673701D01*
X70219178Y-43033242D01*
X71019090Y-43772586D01*
X72030135Y-44668261D01*
X73117153Y-45598982D01*
X73797108Y-46167840D01*
X74678101Y-46872395D01*
X75342429Y-47316283D01*
X75926354Y-47568845D01*
X76566140Y-47699416D01*
X77398052Y-47777337D01*
X79257296Y-47920034D01*
X79167442Y-48776214D01*
X79141290Y-49059204D01*
X79075563Y-50008872D01*
X79024746Y-51048034D01*
X79011524Y-51704988D01*
X79103556Y-52293212D01*
X79428378Y-52685126D01*
X80100454Y-53098964D01*
X80106408Y-53102320D01*
X81141647Y-53903005D01*
X81626092Y-54791456D01*
X81563018Y-55718586D01*
X80955699Y-56635309D01*
X79807409Y-57492536D01*
X79088960Y-57946541D01*
X78488919Y-58425260D01*
X78258419Y-58752876D01*
X78288169Y-58895633D01*
X78516085Y-59500161D01*
X78919748Y-60409769D01*
X79440489Y-61488677D01*
X80169590Y-62813856D01*
X81105955Y-64143372D01*
X82242787Y-65358078D01*
X83688111Y-66571268D01*
X85549949Y-67896236D01*
X86929674Y-68786431D01*
X88699973Y-69786034D01*
X90541330Y-70639189D01*
X92618596Y-71420276D01*
X95096622Y-72203675D01*
X95689818Y-72377792D01*
X97134418Y-72775203D01*
X98335977Y-73039570D01*
X99497938Y-73202273D01*
X100823746Y-73294693D01*
X102516846Y-73348211D01*
X102727316Y-73352602D01*
X104249966Y-73360195D01*
X105640517Y-73328471D01*
X106752900Y-73262763D01*
X107441044Y-73168406D01*
X109029826Y-72607912D01*
X111142209Y-71433354D01*
X113417875Y-69729783D01*
X113678214Y-69510259D01*
X114967954Y-68383894D01*
X116562712Y-66944260D01*
X118384714Y-65265360D01*
X120356188Y-63421195D01*
X122399363Y-61485767D01*
X124436465Y-59533079D01*
X126389724Y-57637132D01*
X128181366Y-55871928D01*
X129733620Y-54311470D01*
X130968714Y-53029758D01*
X131599530Y-52364500D01*
X133040917Y-50906429D01*
X134252573Y-49792182D01*
X135321811Y-48944594D01*
X136335947Y-48286500D01*
X138223920Y-47187290D01*
X141632086Y-45182887D01*
X145047747Y-43150046D01*
X148414963Y-41123314D01*
X151677791Y-39137241D01*
X154780292Y-37226376D01*
X157666524Y-35425268D01*
X160280546Y-33768466D01*
X162566417Y-32290518D01*
X164468196Y-31025974D01*
X165929943Y-30009382D01*
X166608848Y-29502490D01*
X167525966Y-28694528D01*
X167985996Y-28034087D01*
X168026135Y-27455023D01*
X167683581Y-26891194D01*
X167642874Y-26846750D01*
X167308224Y-26566349D01*
X166872370Y-26430154D01*
X166180383Y-26414706D01*
X165077333Y-26496544D01*
X162681309Y-26864583D01*
X160064453Y-27676101D01*
X157816596Y-28865208D01*
X157162999Y-29315107D01*
X155953996Y-30181160D01*
X154580403Y-31195028D01*
X153131719Y-32287691D01*
X151697442Y-33390127D01*
X150367071Y-34433316D01*
X149230104Y-35348238D01*
X148376039Y-36065870D01*
X147894374Y-36517193D01*
X147658450Y-36795360D01*
X147631060Y-36912573D01*
X147984044Y-36702735D01*
X148750554Y-36151694D01*
X148933890Y-36017969D01*
X150042726Y-35248269D01*
X151440192Y-34324020D01*
X153017344Y-33312732D01*
X154665237Y-32281917D01*
X156274927Y-31299085D01*
X157737471Y-30431747D01*
X158943925Y-29747416D01*
X159785344Y-29313600D01*
X160528248Y-29010941D01*
X161941383Y-28557191D01*
X163469431Y-28174031D01*
X164899037Y-27912478D01*
X166016846Y-27823547D01*
X166216095Y-27829824D01*
X166450286Y-27881612D01*
X166206644Y-28006294D01*
X165446060Y-28231846D01*
X163463256Y-28815137D01*
X160713682Y-29777972D01*
X158183644Y-30888594D01*
X155762052Y-32209741D01*
X153337819Y-33804152D01*
X150799855Y-35734565D01*
X148037071Y-38063719D01*
X147549675Y-38473021D01*
X146233228Y-39481287D01*
X144759661Y-40512720D01*
X143365836Y-41398235D01*
X142918927Y-41672807D01*
X141351469Y-42744638D01*
X139747535Y-43975521D01*
X138371454Y-45166042D01*
X138009587Y-45505305D01*
X137153093Y-46293756D01*
X136673615Y-46702080D01*
X136573094Y-46722338D01*
X136853469Y-46346591D01*
X137516681Y-45566902D01*
X138564668Y-44375332D01*
X138857386Y-44041437D01*
X139538029Y-43232517D01*
X140011323Y-42621617D01*
X140188756Y-42320710D01*
X140170697Y-42300745D01*
X139830271Y-42395806D01*
X139147342Y-42714338D01*
X138238585Y-43203522D01*
X137497137Y-43588368D01*
X135685672Y-44335513D01*
X133792456Y-44901402D01*
X133457757Y-44980303D01*
X132063956Y-45289368D01*
X131216483Y-45436047D01*
X130914302Y-45419306D01*
X131156376Y-45238107D01*
X131941668Y-44891414D01*
X133269141Y-44378190D01*
X134010108Y-44098029D01*
X135114009Y-43653250D01*
X136074066Y-43207380D01*
X136987252Y-42699601D01*
X137950540Y-42069093D01*
X139060905Y-41255040D01*
X140415318Y-40196621D01*
X142110753Y-38833019D01*
X142664820Y-38388178D01*
X144152247Y-37223172D01*
X145641201Y-36092844D01*
X146985028Y-35107460D01*
X148037071Y-34377281D01*
X149144333Y-33616542D01*
X150683255Y-32475895D01*
X152180172Y-31283125D01*
X153526008Y-30129135D01*
X154611687Y-29104824D01*
X155328135Y-28301094D01*
X155950707Y-27454094D01*
X156847148Y-26146210D01*
X157558797Y-24949499D01*
X158211413Y-23661607D01*
X158391864Y-23256402D01*
X158798877Y-22060021D01*
X159002293Y-20972578D01*
X158984801Y-20127891D01*
X158729090Y-19659780D01*
X158711166Y-19649818D01*
X158208572Y-19687147D01*
X157382908Y-20082211D01*
X156302239Y-20783807D01*
X155034630Y-21740731D01*
X153648148Y-22901781D01*
X152210858Y-24215753D01*
X150790825Y-25631444D01*
X148326777Y-28184921D01*
X145336786Y-31226141D01*
X142644524Y-33894802D01*
X140261524Y-36180127D01*
X138199319Y-38071338D01*
X136469442Y-39557659D01*
X135083425Y-40628313D01*
X134052801Y-41272523D01*
X133840317Y-41387295D01*
X132943536Y-42007147D01*
X132242755Y-42679016D01*
X131795853Y-43151888D01*
X130861754Y-43978136D01*
X129633564Y-44960533D01*
X128219419Y-46016342D01*
X126727454Y-47062824D01*
X125265808Y-48017241D01*
X124730577Y-48344352D01*
X123385006Y-49134718D01*
X121716480Y-50086411D01*
X119845581Y-51132804D01*
X117892891Y-52207270D01*
X115978992Y-53243182D01*
X114224466Y-54173913D01*
X112749895Y-54932837D01*
X112660426Y-54978008D01*
X111419964Y-55664127D01*
X110669845Y-56224055D01*
X110357707Y-56696393D01*
X110319390Y-56835293D01*
X110190821Y-57072123D01*
X109917890Y-57215656D01*
X109394040Y-57285456D01*
X108512714Y-57301084D01*
X107167357Y-57282103D01*
X105849083Y-57240832D01*
X104764967Y-57151820D01*
X104080234Y-57006390D01*
X103703128Y-56791548D01*
X103495650Y-56553242D01*
X103460426Y-56220857D01*
X103820192Y-55744479D01*
X103853941Y-55707162D01*
X104112969Y-55443072D01*
X104412972Y-55213223D01*
X104837320Y-54981684D01*
X105469388Y-54712520D01*
X106392547Y-54369799D01*
X107690170Y-53917587D01*
X109445629Y-53319952D01*
X109466487Y-53312872D01*
X111016317Y-52748035D01*
X112546386Y-52124161D01*
X113881336Y-51516564D01*
X114845807Y-51000563D01*
X115197781Y-50789135D01*
X116265952Y-50179310D01*
X117639581Y-49423287D01*
X119179245Y-48597239D01*
X120745521Y-47777337D01*
X121131711Y-47576806D01*
X122681486Y-46743516D01*
X123863391Y-46059606D01*
X124654359Y-45544114D01*
X125031326Y-45216080D01*
X124971223Y-45094541D01*
X124450986Y-45198536D01*
X123447549Y-45547104D01*
X123006669Y-45707277D01*
X121791592Y-46110150D01*
X120356744Y-46550358D01*
X118926959Y-46957742D01*
X118327242Y-47121192D01*
X117291465Y-47411804D01*
X116737972Y-47593664D01*
X116618215Y-47693640D01*
X116883648Y-47738602D01*
X117485723Y-47755419D01*
X118112955Y-47783500D01*
X118151643Y-47792171D01*
X118544603Y-47880243D01*
X118551570Y-48070615D01*
X118106552Y-48381673D01*
X117182243Y-48840475D01*
X115751338Y-49474079D01*
X113098673Y-50427993D01*
X109631561Y-51197312D01*
X106084262Y-51495381D01*
X104700194Y-51512402D01*
X103613410Y-51513988D01*
X102955396Y-51490465D01*
X102650978Y-51435114D01*
X102624984Y-51341218D01*
X102802240Y-51202056D01*
X103043862Y-50979536D01*
X102789782Y-50944278D01*
X102048423Y-51103195D01*
X100843767Y-51453211D01*
X100028091Y-51740550D01*
X99169735Y-52123200D01*
X98657505Y-52452088D01*
X98289813Y-52722090D01*
X97679721Y-52914416D01*
X97361168Y-52976679D01*
X96808981Y-53342506D01*
X96548426Y-53563315D01*
X95917857Y-53770596D01*
X95619438Y-53819279D01*
X95382015Y-54055989D01*
X95341847Y-54171764D01*
X94953245Y-54324302D01*
X94317831Y-54280133D01*
X93641701Y-54041028D01*
X93345085Y-53901305D01*
X93178507Y-53980922D01*
X93271024Y-54499844D01*
X93360366Y-54916007D01*
X93279503Y-55114682D01*
X92870889Y-54942895D01*
X92458957Y-54749758D01*
X92036791Y-54626775D01*
X91831967Y-54769826D01*
X91753473Y-55254378D01*
X91867463Y-55872724D01*
X92044936Y-56196438D01*
X92158783Y-56404098D01*
X92185096Y-56433767D01*
X92449926Y-56904018D01*
X92351539Y-57154146D01*
X91939135Y-57041394D01*
X91876163Y-57014637D01*
X91324236Y-56927959D01*
X90405087Y-56876542D01*
X89280260Y-56870754D01*
X89228507Y-56871592D01*
X87848843Y-56857259D01*
X86448107Y-56786114D01*
X85321903Y-56672931D01*
X84766381Y-56597589D01*
X84076055Y-56550140D01*
X83748993Y-56640907D01*
X83656844Y-56886342D01*
X83612521Y-56968087D01*
X83401594Y-56743609D01*
X83111889Y-56196438D01*
X91101116Y-56196438D01*
X91243813Y-56339135D01*
X91386509Y-56196438D01*
X91243813Y-56053742D01*
X91101116Y-56196438D01*
X83111889Y-56196438D01*
X83080607Y-56137356D01*
X82859547Y-55572799D01*
X82469549Y-54054780D01*
X82187818Y-52190573D01*
X82083381Y-50794288D01*
X103997362Y-50794288D01*
X104235947Y-50822174D01*
X104937493Y-50751992D01*
X106084262Y-50593898D01*
X107826268Y-50325323D01*
X109426578Y-50029283D01*
X110789017Y-49702247D01*
X112089637Y-49301258D01*
X113504487Y-48783360D01*
X116073026Y-47792171D01*
X114387043Y-47972030D01*
X113894760Y-48046012D01*
X112764954Y-48277078D01*
X111310364Y-48620825D01*
X109665706Y-49044844D01*
X107965695Y-49516730D01*
X106236757Y-50020665D01*
X104980029Y-50403689D01*
X104239477Y-50658178D01*
X103997362Y-50794288D01*
X82083381Y-50794288D01*
X82033539Y-50127927D01*
X82025895Y-48014589D01*
X82050121Y-47180892D01*
X82042076Y-46247540D01*
X81953047Y-45639678D01*
X81754861Y-45208178D01*
X81419346Y-44803915D01*
X81350961Y-44732968D01*
X80785441Y-44260512D01*
X80349121Y-44067225D01*
X80076888Y-44029395D01*
X79968886Y-43833291D01*
X80251485Y-43568912D01*
X80846243Y-43349506D01*
X81298708Y-43215114D01*
X81810912Y-42814165D01*
X81784327Y-42233014D01*
X81220772Y-41462505D01*
X81138650Y-41380480D01*
X80411929Y-40792054D01*
X79408385Y-40117811D01*
X78275764Y-39441980D01*
X77161810Y-38848788D01*
X76214269Y-38422465D01*
X75580885Y-38247239D01*
X75415069Y-38227563D01*
X75046214Y-37965562D01*
X74886967Y-37289135D01*
X74790346Y-36718765D01*
X74504548Y-36421853D01*
X73846804Y-36361607D01*
X73311518Y-36397795D01*
X71990874Y-36670345D01*
X70562769Y-37142329D01*
X69252725Y-37732682D01*
X68286265Y-38360340D01*
X67303999Y-39205806D01*
X60018442Y-39205806D01*
X60064505Y-39067468D01*
X60292211Y-38861772D01*
X60603766Y-38657034D01*
X61037400Y-38518755D01*
X61684138Y-38459368D01*
X62662522Y-38468729D01*
X64091090Y-38536693D01*
X67270779Y-38713003D01*
X68358840Y-37839710D01*
X69411358Y-37119311D01*
X70985223Y-36443209D01*
X72849955Y-36069839D01*
X75119094Y-35967759D01*
X76528623Y-36040318D01*
X79056866Y-36459499D01*
X81399568Y-37210420D01*
X83390600Y-38247297D01*
X84213369Y-38900654D01*
X85508496Y-40316412D01*
X86850447Y-42217645D01*
X88204639Y-44559011D01*
X89531453Y-47063854D01*
X97522464Y-47124475D01*
X99535358Y-47147822D01*
X101790774Y-47191677D01*
X103926570Y-47250614D01*
X105829955Y-47320962D01*
X107388136Y-47399053D01*
X108488323Y-47481216D01*
X109272782Y-47554746D01*
X110708032Y-47669003D01*
X111990088Y-47747552D01*
X112911918Y-47776569D01*
X113438674Y-47745004D01*
X114673861Y-47565995D01*
X116240214Y-47256081D01*
X118006279Y-46846524D01*
X119840603Y-46368587D01*
X121611731Y-45853534D01*
X123188210Y-45332626D01*
X123561339Y-45197156D01*
X125067495Y-44620861D01*
X126766366Y-43934552D01*
X128554494Y-43183669D01*
X130328418Y-42413655D01*
X131984677Y-41669953D01*
X133419810Y-40998003D01*
X134530357Y-40443250D01*
X135212858Y-40051134D01*
X135452826Y-39880849D01*
X136528346Y-39018758D01*
X137946228Y-37765061D01*
X139677772Y-36146969D01*
X141694282Y-34191698D01*
X143967060Y-31926461D01*
X146467408Y-29378472D01*
X147114307Y-28713269D01*
X148540042Y-27250541D01*
X149891159Y-25868611D01*
X151087007Y-24649753D01*
X152046937Y-23676242D01*
X152690297Y-23030351D01*
X152756381Y-22965479D01*
X153668331Y-22163290D01*
X154762166Y-21325716D01*
X155914368Y-20533578D01*
X157001420Y-19867700D01*
X157899803Y-19408904D01*
X158485999Y-19238011D01*
X158771706Y-19310822D01*
X159451988Y-19625281D01*
X160278306Y-20103887D01*
X160818837Y-20418639D01*
X161836252Y-20902381D01*
X162688675Y-21185734D01*
X162940836Y-21244474D01*
X163581368Y-21541484D01*
X163824836Y-22031747D01*
X164013800Y-22468765D01*
X164681016Y-22824707D01*
X165442283Y-23012025D01*
X166242275Y-23360778D01*
X166720002Y-23889267D01*
X167026049Y-24719144D01*
X167095988Y-24951711D01*
X167528258Y-25924752D01*
X168062819Y-26698357D01*
X168161999Y-26803843D01*
X168556190Y-27300801D01*
X168570054Y-27455023D01*
G37*
D10*
%TO.C,MX17*%
X187427324Y-46336030D02*
X187427324Y-46806030D01*
X187427324Y-43256030D02*
X187427324Y-43486030D01*
X186927324Y-47306030D02*
X182362500Y-47306030D01*
X185877324Y-43256030D02*
X187427324Y-43256030D01*
X178477324Y-43256030D02*
X184377324Y-43256030D01*
X176477324Y-48906030D02*
X176477324Y-49146030D01*
X176477324Y-46056030D02*
X176477324Y-45256030D01*
X186927324Y-47306030D02*
G75*
G03*
X187427324Y-46806030I-1J500001D01*
G01*
X182362500Y-47306030D02*
G75*
G03*
X180068178Y-49146030I-863J-2349335D01*
G01*
X178477324Y-43256030D02*
G75*
G03*
X176477324Y-45256030I5J-2000005D01*
G01*
D11*
%TO.C,J3*%
X71141964Y-63355000D02*
X68481964Y-63355000D01*
X71141964Y-58215000D02*
X71141964Y-63355000D01*
X71141964Y-58215000D02*
X68481964Y-58215000D01*
X71141964Y-56945000D02*
X71141964Y-55615000D01*
X71141964Y-55615000D02*
X69811964Y-55615000D01*
X68481964Y-58215000D02*
X68481964Y-63355000D01*
D10*
%TO.C,MX14*%
X128689824Y-46336030D02*
X128689824Y-46806030D01*
X128689824Y-43256030D02*
X128689824Y-43486030D01*
X128189824Y-47306030D02*
X123625000Y-47306030D01*
X127139824Y-43256030D02*
X128689824Y-43256030D01*
X119739824Y-43256030D02*
X125639824Y-43256030D01*
X117739824Y-48906030D02*
X117739824Y-49146030D01*
X117739824Y-46056030D02*
X117739824Y-45256030D01*
X128189824Y-47306030D02*
G75*
G03*
X128689824Y-46806030I-1J500001D01*
G01*
X123625000Y-47306030D02*
G75*
G03*
X121330678Y-49146030I-863J-2349335D01*
G01*
X119739824Y-43256030D02*
G75*
G03*
X117739824Y-45256030I5J-2000005D01*
G01*
%TO.C,MX22*%
X89553121Y-65762149D02*
X89585906Y-66231004D01*
X89338271Y-62689651D02*
X89354315Y-62919091D01*
X89122003Y-66764664D02*
X84568298Y-67083090D01*
X87792047Y-62797774D02*
X89338271Y-62689651D01*
X80410073Y-63313972D02*
X86295701Y-62902408D01*
X78809069Y-69089722D02*
X78825810Y-69329137D01*
X78610263Y-66246664D02*
X78554458Y-65448613D01*
X89122003Y-66764663D02*
G75*
G03*
X89585905Y-66231004I-34880J498782D01*
G01*
X84568298Y-67083090D02*
G75*
G03*
X82407917Y-69078652I163018J-2343669D01*
G01*
X80410073Y-63313972D02*
G75*
G03*
X78554459Y-65448613I139518J-1995132D01*
G01*
D11*
%TO.C,C4*%
X91140670Y-86008750D02*
X91421830Y-86008750D01*
X91140670Y-87028750D02*
X91421830Y-87028750D01*
D10*
%TO.C,MX3*%
X109639824Y-27286030D02*
X109639824Y-27756030D01*
X109639824Y-24206030D02*
X109639824Y-24436030D01*
X109139824Y-28256030D02*
X104575000Y-28256030D01*
X108089824Y-24206030D02*
X109639824Y-24206030D01*
X100689824Y-24206030D02*
X106589824Y-24206030D01*
X98689824Y-29856030D02*
X98689824Y-30096030D01*
X98689824Y-27006030D02*
X98689824Y-26206030D01*
X109139824Y-28256030D02*
G75*
G03*
X109639824Y-27756030I-1J500001D01*
G01*
X104575000Y-28256030D02*
G75*
G03*
X102280678Y-30096030I-863J-2349335D01*
G01*
X100689824Y-24206030D02*
G75*
G03*
X98689824Y-26206030I5J-2000005D01*
G01*
D11*
%TO.C,C11*%
X90997500Y-88759420D02*
X90997500Y-89040580D01*
X89977500Y-88759420D02*
X89977500Y-89040580D01*
%TO.C,D10*%
X248237500Y-37928750D02*
X248237500Y-34068750D01*
X250237500Y-37928750D02*
X248237500Y-37928750D01*
X250237500Y-37928750D02*
X250237500Y-34068750D01*
%TO.C,D6*%
X165687500Y-33960000D02*
X165687500Y-30100000D01*
X167687500Y-33960000D02*
X165687500Y-33960000D01*
X167687500Y-33960000D02*
X167687500Y-30100000D01*
D10*
%TO.C,MX28*%
X206477324Y-65386030D02*
X206477324Y-65856030D01*
X206477324Y-62306030D02*
X206477324Y-62536030D01*
X205977324Y-66356030D02*
X201412500Y-66356030D01*
X204927324Y-62306030D02*
X206477324Y-62306030D01*
X197527324Y-62306030D02*
X203427324Y-62306030D01*
X195527324Y-67956030D02*
X195527324Y-68196030D01*
X195527324Y-65106030D02*
X195527324Y-64306030D01*
X205977324Y-66356030D02*
G75*
G03*
X206477324Y-65856030I-1J500001D01*
G01*
X201412500Y-66356030D02*
G75*
G03*
X199118178Y-68196030I-863J-2349335D01*
G01*
X197527324Y-62306030D02*
G75*
G03*
X195527324Y-64306030I5J-2000005D01*
G01*
D11*
%TO.C,D20*%
X245617400Y-57201910D02*
X245617400Y-53341910D01*
X247617400Y-57201910D02*
X245617400Y-57201910D01*
X247617400Y-57201910D02*
X247617400Y-53341910D01*
%TO.C,D1*%
X62235561Y-37369733D02*
X62235561Y-33509733D01*
X64235561Y-37369733D02*
X62235561Y-37369733D01*
X64235561Y-37369733D02*
X64235561Y-33509733D01*
D10*
%TO.C,MX39*%
X168172676Y-91776470D02*
X168172676Y-91306470D01*
X168172676Y-94856470D02*
X168172676Y-94626470D01*
X168672676Y-90806470D02*
X173237500Y-90806470D01*
X169722676Y-94856470D02*
X168172676Y-94856470D01*
X177122676Y-94856470D02*
X171222676Y-94856470D01*
X179122676Y-89206470D02*
X179122676Y-88966470D01*
X179122676Y-92056470D02*
X179122676Y-92856470D01*
X168672676Y-90806470D02*
G75*
G03*
X168172676Y-91306470I1J-500001D01*
G01*
X173237500Y-90806470D02*
G75*
G03*
X175531822Y-88966470I863J2349335D01*
G01*
X177122676Y-94856470D02*
G75*
G03*
X179122676Y-92856470I-5J2000005D01*
G01*
D11*
%TO.C,D30*%
X242980283Y-75935302D02*
X242980283Y-72075302D01*
X244980283Y-75935302D02*
X242980283Y-75935302D01*
X244980283Y-75935302D02*
X244980283Y-72075302D01*
%TO.C,D12*%
X85706202Y-53728434D02*
X85706202Y-49868434D01*
X87706202Y-53728434D02*
X85706202Y-53728434D01*
X87706202Y-53728434D02*
X87706202Y-49868434D01*
%TO.C,D4*%
X126000000Y-33960000D02*
X126000000Y-30100000D01*
X128000000Y-33960000D02*
X126000000Y-33960000D01*
X128000000Y-33960000D02*
X128000000Y-30100000D01*
D10*
%TO.C,MX30*%
X246245696Y-68866302D02*
X246180284Y-69331728D01*
X246674349Y-65816276D02*
X246642339Y-66044038D01*
X245615564Y-69757275D02*
X241095164Y-69121975D01*
X245139433Y-65600558D02*
X246674349Y-65816276D01*
X237811450Y-64570677D02*
X243654031Y-65391798D01*
X235044586Y-69887345D02*
X235011184Y-70125010D01*
X235441229Y-67065081D02*
X235552567Y-66272867D01*
X245615564Y-69757274D02*
G75*
G03*
X246180284Y-69331728I69586J495134D01*
G01*
X241095164Y-69121975D02*
G75*
G03*
X238567093Y-70624760I-327818J-2326351D01*
G01*
X237811450Y-64570677D02*
G75*
G03*
X235552568Y-66272867I-278342J-1980542D01*
G01*
D11*
%TO.C,D22*%
X87106250Y-72853750D02*
X87106250Y-68993750D01*
X89106250Y-72853750D02*
X87106250Y-72853750D01*
X89106250Y-72853750D02*
X89106250Y-68993750D01*
%TO.C,D16*%
X171243750Y-49041250D02*
X171243750Y-45181250D01*
X173243750Y-49041250D02*
X171243750Y-49041250D01*
X173243750Y-49041250D02*
X173243750Y-45181250D01*
%TO.C,D37*%
X184737500Y-91110000D02*
X184737500Y-87250000D01*
X186737500Y-91110000D02*
X184737500Y-91110000D01*
X186737500Y-91110000D02*
X186737500Y-87250000D01*
D10*
%TO.C,MX29*%
X226410612Y-66415935D02*
X226377827Y-66884791D01*
X226625462Y-63343438D02*
X226609418Y-63572878D01*
X225844166Y-67348694D02*
X221290462Y-67030268D01*
X225079238Y-63235316D02*
X226625462Y-63343438D01*
X217697264Y-62719118D02*
X223582892Y-63130681D01*
X215308012Y-68215842D02*
X215291270Y-68455257D01*
X215506818Y-65372784D02*
X215562623Y-64574733D01*
X225844166Y-67348694D02*
G75*
G03*
X226377827Y-66884791I34878J498783D01*
G01*
X221290462Y-67030269D02*
G75*
G03*
X218873378Y-68705742I-164745J-2343548D01*
G01*
X217697264Y-62719118D02*
G75*
G03*
X215562623Y-64574733I-139508J-1995133D01*
G01*
D11*
%TO.C,C8*%
X76404812Y-81735460D02*
X76404812Y-81454300D01*
X77424812Y-81735460D02*
X77424812Y-81454300D01*
%TO.C,G\u002A\u002A\u002A*%
G36*
X196772969Y-65269566D02*
G01*
X196752825Y-65417332D01*
X196586888Y-65455647D01*
X196553483Y-65414737D01*
X196586888Y-65083486D01*
X196670843Y-65039818D01*
X196772969Y-65269566D01*
G37*
G36*
X215055386Y-58431526D02*
G01*
X213101540Y-59450035D01*
X212851381Y-59578921D01*
X211961919Y-60010423D01*
X211309970Y-60284881D01*
X211022090Y-60347664D01*
X211043505Y-60237423D01*
X211343191Y-59824402D01*
X211883670Y-59239598D01*
X211982540Y-59141570D01*
X212639571Y-58580405D01*
X213221310Y-58347737D01*
X213963120Y-58341970D01*
X215055386Y-58431526D01*
G37*
G36*
X207915876Y-58507438D02*
G01*
X207360976Y-58981684D01*
X206353831Y-59627849D01*
X206180255Y-59730019D01*
X204993007Y-60392574D01*
X204259548Y-60734624D01*
X203987603Y-60767678D01*
X204184901Y-60503244D01*
X204859170Y-59952829D01*
X206018137Y-59127941D01*
X206858692Y-58593463D01*
X207608650Y-58234506D01*
X207990673Y-58232765D01*
X207915876Y-58507438D01*
G37*
G36*
X210772205Y-58469666D02*
G01*
X210434236Y-58803327D01*
X209611992Y-59326265D01*
X208847453Y-59768416D01*
X208290297Y-60079941D01*
X208023718Y-60194327D01*
X207941595Y-60154494D01*
X207937804Y-60003361D01*
X207940902Y-59976028D01*
X208213916Y-59631925D01*
X208802585Y-59189318D01*
X209528459Y-58755989D01*
X210213087Y-58439721D01*
X210678015Y-58348298D01*
X210772205Y-58469666D01*
G37*
G36*
X206254538Y-58166557D02*
G01*
X206135390Y-58363112D01*
X205598824Y-58700444D01*
X204596228Y-59216299D01*
X203701513Y-59652324D01*
X202862415Y-60033876D01*
X202368753Y-60202050D01*
X202135159Y-60183569D01*
X202076266Y-60005158D01*
X202083592Y-59967927D01*
X202394232Y-59656626D01*
X203050867Y-59244863D01*
X203899545Y-58807030D01*
X204786315Y-58417515D01*
X205557225Y-58150710D01*
X206058324Y-58081004D01*
X206254538Y-58166557D01*
G37*
G36*
X203593677Y-57550796D02*
G01*
X203805422Y-57794770D01*
X203470523Y-58121838D01*
X202591178Y-58526748D01*
X202501211Y-58560547D01*
X201518449Y-58852548D01*
X200508620Y-59042365D01*
X199612733Y-59117382D01*
X198971796Y-59064981D01*
X198726815Y-58872543D01*
X198754024Y-58814075D01*
X199141221Y-58564645D01*
X199866547Y-58253021D01*
X200775204Y-57931093D01*
X201712395Y-57650747D01*
X202523322Y-57463871D01*
X203053189Y-57422353D01*
X203593677Y-57550796D01*
G37*
G36*
X200890002Y-56144748D02*
G01*
X201308405Y-56368561D01*
X201465830Y-56625066D01*
X201099499Y-56830702D01*
X200192200Y-57006729D01*
X199925196Y-57045659D01*
X198725994Y-57235140D01*
X197610331Y-57429353D01*
X197408581Y-57464519D01*
X196228347Y-57611954D01*
X195098244Y-57680674D01*
X194780656Y-57683773D01*
X194240484Y-57665453D01*
X194179570Y-57585736D01*
X194540002Y-57417298D01*
X194729973Y-57348422D01*
X195489227Y-57113362D01*
X196551766Y-56814382D01*
X197749892Y-56499435D01*
X198511436Y-56313858D01*
X199635924Y-56091947D01*
X200393819Y-56039526D01*
X200890002Y-56144748D01*
G37*
G36*
X229163663Y-34287149D02*
G01*
X229010780Y-34556989D01*
X228529419Y-34930113D01*
X227826235Y-35304120D01*
X226982794Y-35620893D01*
X226080661Y-35822314D01*
X224599786Y-36202925D01*
X223347825Y-36987333D01*
X222463349Y-38172772D01*
X222456793Y-38185633D01*
X222026484Y-39144628D01*
X221939217Y-39750614D01*
X222214232Y-40104368D01*
X222870771Y-40306664D01*
X223351179Y-40423046D01*
X223786985Y-40656705D01*
X223701170Y-40887229D01*
X223080112Y-41065249D01*
X222470975Y-41149552D01*
X221811380Y-41223350D01*
X221308786Y-41081009D01*
X220677132Y-40615013D01*
X220156480Y-40003631D01*
X219940002Y-39431796D01*
X219940215Y-39410705D01*
X220161805Y-38590981D01*
X220708209Y-37657458D01*
X221443981Y-36800389D01*
X222233674Y-36210026D01*
X222843943Y-35842870D01*
X223774272Y-35174681D01*
X224687490Y-34424548D01*
X224853963Y-34287149D01*
X226080661Y-34287149D01*
X226088772Y-34353866D01*
X226359782Y-34566270D01*
X226426499Y-34558159D01*
X226638903Y-34287149D01*
X226630792Y-34220432D01*
X226359782Y-34008028D01*
X226293065Y-34016139D01*
X226080661Y-34287149D01*
X224853963Y-34287149D01*
X225291980Y-33925631D01*
X226321040Y-33314937D01*
X227137167Y-33204206D01*
X227755386Y-33589347D01*
X228010215Y-33805303D01*
X228626926Y-34008028D01*
X228981769Y-34045864D01*
X229188752Y-34242867D01*
X229163663Y-34287149D01*
G37*
G36*
X240948298Y-33112966D02*
G01*
X239842598Y-33573149D01*
X238238241Y-34124601D01*
X237686357Y-34304234D01*
X236453586Y-34726796D01*
X235596138Y-35077844D01*
X234995716Y-35420362D01*
X234534024Y-35817334D01*
X234092766Y-36331745D01*
X233604486Y-36969573D01*
X232667964Y-38309543D01*
X231832197Y-39649656D01*
X231159073Y-40880814D01*
X230710483Y-41893920D01*
X230548315Y-42579875D01*
X230649673Y-43107546D01*
X230934102Y-43815542D01*
X231262885Y-44523336D01*
X231878223Y-46483403D01*
X232216388Y-48623216D01*
X232253368Y-50737683D01*
X231965150Y-52621713D01*
X231691170Y-53376436D01*
X231089118Y-54634400D01*
X230250357Y-56166293D01*
X229233336Y-57879896D01*
X228096504Y-59682990D01*
X226898311Y-61483357D01*
X225697206Y-63188780D01*
X224551638Y-64707040D01*
X223520057Y-65945918D01*
X223376849Y-66103670D01*
X222214448Y-67231191D01*
X220796644Y-68349977D01*
X219054798Y-69506072D01*
X216920272Y-70745519D01*
X214324427Y-72114362D01*
X213008756Y-72777274D01*
X211433230Y-73542638D01*
X210154733Y-74115275D01*
X209060219Y-74541735D01*
X208036639Y-74868567D01*
X206970947Y-75142322D01*
X206377038Y-75296255D01*
X205858532Y-75521802D01*
X205428416Y-75899221D01*
X204965675Y-76539887D01*
X204349294Y-77555178D01*
X204224964Y-77766493D01*
X203630079Y-78854358D01*
X203260457Y-79780592D01*
X203126721Y-80651734D01*
X203239496Y-81574323D01*
X203609407Y-82654899D01*
X204247077Y-84000002D01*
X205163132Y-85716172D01*
X205577709Y-86473500D01*
X206483351Y-88110794D01*
X207197596Y-89360181D01*
X207771247Y-90297318D01*
X208255109Y-90997857D01*
X208699986Y-91537455D01*
X209156684Y-91991766D01*
X209676006Y-92436444D01*
X210203665Y-92829191D01*
X211136499Y-93301821D01*
X211537112Y-93504796D01*
X213132690Y-93887031D01*
X215115697Y-94012194D01*
X215850286Y-94039609D01*
X217383213Y-94328601D01*
X218495184Y-94944624D01*
X219219159Y-95902864D01*
X219227260Y-95919888D01*
X219526534Y-96673242D01*
X219493437Y-96983875D01*
X219121562Y-96854825D01*
X218404499Y-96289130D01*
X218373372Y-96262024D01*
X217447406Y-95641488D01*
X216615729Y-95414621D01*
X215806759Y-95372708D01*
X214880936Y-95263843D01*
X214300811Y-95186458D01*
X214182774Y-95243787D01*
X214490731Y-95473184D01*
X214519404Y-95492280D01*
X215039562Y-95899907D01*
X215763999Y-96535894D01*
X216589093Y-97300412D01*
X217411216Y-98093633D01*
X218126745Y-98815728D01*
X218632054Y-99366869D01*
X218823518Y-99647228D01*
X218652951Y-99889979D01*
X218138469Y-99760995D01*
X217318870Y-99261351D01*
X216233245Y-98409720D01*
X215953038Y-98173569D01*
X214673529Y-97149664D01*
X213598909Y-96429011D01*
X212571861Y-95932658D01*
X211435067Y-95581648D01*
X210031211Y-95297027D01*
X209353476Y-95180983D01*
X207944168Y-94973621D01*
X206821147Y-94892658D01*
X205798995Y-94942331D01*
X204692298Y-95126879D01*
X203315638Y-95450542D01*
X202188044Y-95756085D01*
X201331274Y-96068154D01*
X200771860Y-96410328D01*
X200375963Y-96846146D01*
X200275002Y-96983410D01*
X199768838Y-97515182D01*
X199416953Y-97618003D01*
X199285057Y-97266549D01*
X199376005Y-96851752D01*
X199900862Y-96125946D01*
X200792621Y-95461765D01*
X201936145Y-94959406D01*
X202138669Y-94893391D01*
X202948643Y-94556398D01*
X203258992Y-94278096D01*
X203056999Y-94088847D01*
X202329949Y-94019017D01*
X202224061Y-94015872D01*
X201364668Y-93870085D01*
X200462355Y-93573837D01*
X199792022Y-93315604D01*
X198713760Y-92950644D01*
X197581593Y-92607308D01*
X197493102Y-92582307D01*
X196739073Y-92380536D01*
X196110990Y-92262134D01*
X195473383Y-92227841D01*
X194690780Y-92278398D01*
X193627710Y-92414546D01*
X192148702Y-92637026D01*
X191122702Y-92797735D01*
X189924097Y-93007805D01*
X189091051Y-93204028D01*
X188509627Y-93422735D01*
X188065892Y-93700261D01*
X187645908Y-94072938D01*
X187051011Y-94580143D01*
X186620377Y-94755723D01*
X186499119Y-94485465D01*
X186709490Y-93776417D01*
X186855556Y-93448417D01*
X187382044Y-92635062D01*
X188106872Y-92088702D01*
X189148855Y-91741009D01*
X190626809Y-91523655D01*
X191166030Y-91464566D01*
X192288224Y-91284334D01*
X193025627Y-91045503D01*
X193504715Y-90712424D01*
X193511374Y-90705741D01*
X193721602Y-90449365D01*
X193857823Y-90127888D01*
X193913260Y-89672772D01*
X193881137Y-89015477D01*
X193754676Y-88087465D01*
X193527101Y-86820198D01*
X193191635Y-85145136D01*
X192741499Y-82993742D01*
X192513104Y-81858875D01*
X192263381Y-80312452D01*
X194263410Y-80312452D01*
X194312702Y-81306443D01*
X194504813Y-82919381D01*
X194808341Y-84713981D01*
X195187207Y-86505509D01*
X195605331Y-88109233D01*
X196026634Y-89340419D01*
X196162809Y-89622164D01*
X196761295Y-90361093D01*
X197704343Y-90981073D01*
X199063180Y-91521203D01*
X200909031Y-92020581D01*
X201874218Y-92280875D01*
X203168627Y-92760525D01*
X204085986Y-93276308D01*
X204358467Y-93479169D01*
X204903867Y-93849632D01*
X205172942Y-93977196D01*
X205464576Y-93916366D01*
X206070223Y-93817505D01*
X206643240Y-93631162D01*
X207006946Y-93301821D01*
X206976092Y-93077840D01*
X206726875Y-92412852D01*
X206275704Y-91416080D01*
X205663815Y-90177287D01*
X204932447Y-88786237D01*
X204102182Y-87246721D01*
X202993732Y-85170486D01*
X202121747Y-83504195D01*
X201462830Y-82201172D01*
X200993580Y-81214737D01*
X200690598Y-80498212D01*
X200530485Y-80004919D01*
X200494268Y-79507571D01*
X200695773Y-78726907D01*
X201211587Y-77652605D01*
X201627703Y-76855812D01*
X201952052Y-76174104D01*
X202076266Y-75826593D01*
X201924680Y-75753726D01*
X201319164Y-75672738D01*
X200358515Y-75617479D01*
X199158282Y-75597039D01*
X196240298Y-75597039D01*
X195250590Y-76893221D01*
X195010711Y-77211977D01*
X194596634Y-77844521D01*
X194372243Y-78439856D01*
X194280260Y-79196370D01*
X194263410Y-80312452D01*
X192263381Y-80312452D01*
X192176751Y-79775993D01*
X192052876Y-78169453D01*
X192140268Y-77012508D01*
X192437718Y-76278409D01*
X192696423Y-75886397D01*
X192856400Y-75499771D01*
X192642606Y-75446180D01*
X191939908Y-75401005D01*
X190818606Y-75372174D01*
X189352183Y-75360762D01*
X187614125Y-75367849D01*
X185677914Y-75394511D01*
X185639933Y-75395207D01*
X183330215Y-75443473D01*
X181494794Y-75497844D01*
X180050943Y-75564502D01*
X178915935Y-75649628D01*
X178007043Y-75759405D01*
X177241542Y-75900015D01*
X176536705Y-76077641D01*
X176472379Y-76096202D01*
X175663651Y-76377778D01*
X174588224Y-76827838D01*
X173224554Y-77457674D01*
X171551097Y-78278574D01*
X169546309Y-79301829D01*
X167188647Y-80538728D01*
X164456566Y-82000563D01*
X161328523Y-83698621D01*
X157782974Y-85644195D01*
X153798375Y-87848573D01*
X149353182Y-90323045D01*
X148188601Y-90971084D01*
X146026197Y-92158498D01*
X144251394Y-93102420D01*
X142800921Y-93830529D01*
X141611510Y-94370504D01*
X140619890Y-94750023D01*
X139762791Y-94996765D01*
X138976944Y-95138409D01*
X138199080Y-95202633D01*
X137218630Y-95182549D01*
X136172734Y-94901703D01*
X135873193Y-94609522D01*
X136363238Y-94609522D01*
X136493751Y-94707259D01*
X137089995Y-94818829D01*
X137996620Y-94814091D01*
X139056230Y-94698576D01*
X140111430Y-94477814D01*
X140249020Y-94438251D01*
X140901926Y-94205986D01*
X141756831Y-93837594D01*
X142853762Y-93312334D01*
X144232744Y-92609464D01*
X145933801Y-91708242D01*
X147996958Y-90587925D01*
X150462240Y-89227772D01*
X153369672Y-87607041D01*
X153836336Y-87346170D01*
X156866204Y-85663744D01*
X159838514Y-84031963D01*
X162705714Y-82475813D01*
X165420257Y-81020282D01*
X167934591Y-79690358D01*
X170201168Y-78511027D01*
X172172437Y-77507279D01*
X173800849Y-76704099D01*
X175038854Y-76126476D01*
X175838903Y-75799397D01*
X176253032Y-75662012D01*
X176666847Y-75544047D01*
X177122045Y-75446823D01*
X177670312Y-75368241D01*
X178363334Y-75306199D01*
X179252797Y-75258599D01*
X180390385Y-75223340D01*
X181827787Y-75198322D01*
X183616686Y-75181445D01*
X185808770Y-75170609D01*
X188455723Y-75163715D01*
X191609233Y-75158662D01*
X192314480Y-75157695D01*
X195515300Y-75152668D01*
X198225600Y-75142699D01*
X200501796Y-75121503D01*
X202400300Y-75082794D01*
X203977528Y-75020288D01*
X205289892Y-74927699D01*
X206393808Y-74798744D01*
X207345688Y-74627135D01*
X208201948Y-74406589D01*
X209019001Y-74130821D01*
X209853261Y-73793545D01*
X210761142Y-73388476D01*
X211799058Y-72909330D01*
X213196777Y-72252081D01*
X215967857Y-70853502D01*
X218320246Y-69497423D01*
X220338119Y-68116834D01*
X222105655Y-66644728D01*
X223707030Y-65014094D01*
X225226420Y-63157923D01*
X226748004Y-61009206D01*
X228945258Y-57725770D01*
X228237761Y-57070084D01*
X227947626Y-56786438D01*
X227126042Y-55665085D01*
X226738049Y-54389209D01*
X226731170Y-52810444D01*
X226755424Y-52523403D01*
X226725802Y-50192566D01*
X226242772Y-48076952D01*
X225277137Y-46040612D01*
X224788022Y-45178690D01*
X224144378Y-43768026D01*
X223914005Y-42688518D01*
X224099901Y-41907729D01*
X224705062Y-41393221D01*
X225732486Y-41112556D01*
X226098404Y-41052433D01*
X226712226Y-40871850D01*
X227289532Y-40535773D01*
X227964641Y-39955654D01*
X228871870Y-39042946D01*
X229197089Y-38710079D01*
X230159069Y-37769720D01*
X231062041Y-36942983D01*
X231746126Y-36378097D01*
X232075824Y-36111606D01*
X232546541Y-35603374D01*
X232672092Y-35247049D01*
X232733078Y-34874624D01*
X233110451Y-34383154D01*
X233522290Y-33928827D01*
X233887419Y-33320405D01*
X233939335Y-33112966D01*
X233833500Y-32812352D01*
X233396100Y-32507439D01*
X232528650Y-32110536D01*
X231804889Y-31808677D01*
X230180679Y-31194836D01*
X228853969Y-30842801D01*
X227683746Y-30751216D01*
X226528997Y-30918724D01*
X225248707Y-31343966D01*
X223701864Y-32025588D01*
X223575484Y-32084953D01*
X222159314Y-32785987D01*
X221120525Y-33407862D01*
X220324165Y-34059570D01*
X219635279Y-34850104D01*
X218918915Y-35888457D01*
X218359026Y-36827541D01*
X217864529Y-37999132D01*
X217791027Y-38904900D01*
X218128200Y-39593191D01*
X218264189Y-39750178D01*
X218434160Y-40052462D01*
X218443395Y-40443085D01*
X218280538Y-41066983D01*
X217934236Y-42069094D01*
X217246296Y-43999160D01*
X218170787Y-44149185D01*
X218357694Y-44184724D01*
X219186566Y-44387238D01*
X220294221Y-44697213D01*
X221494007Y-45063306D01*
X222300546Y-45337270D01*
X223555031Y-45898343D01*
X224431359Y-46564794D01*
X225047942Y-47441549D01*
X225523196Y-48633532D01*
X225623090Y-49007226D01*
X225795411Y-50402036D01*
X225790356Y-52064095D01*
X225623399Y-53802542D01*
X225310009Y-55426516D01*
X225179542Y-55813688D01*
X224865660Y-56745155D01*
X224860041Y-56756380D01*
X224475098Y-57525432D01*
X224137618Y-58061503D01*
X223943463Y-58201233D01*
X223902732Y-58036689D01*
X224102992Y-57622447D01*
X224190605Y-57512050D01*
X224243486Y-57313790D01*
X223840023Y-57375313D01*
X223461327Y-57539810D01*
X223408391Y-57593742D01*
X223096406Y-57911595D01*
X223000314Y-58067915D01*
X222545314Y-58291544D01*
X222370598Y-58252815D01*
X222325264Y-57991818D01*
X222352665Y-57830844D01*
X221992836Y-57958845D01*
X221709633Y-58080446D01*
X220877260Y-58353372D01*
X219856532Y-58630202D01*
X218883820Y-58849300D01*
X218195496Y-58949029D01*
X217938655Y-58994561D01*
X217707035Y-59200878D01*
X217618573Y-59389659D01*
X217238433Y-59901635D01*
X216660331Y-60567180D01*
X216434649Y-60795029D01*
X215703410Y-61386801D01*
X214674463Y-62046004D01*
X214142969Y-62338797D01*
X213636293Y-62617918D01*
X213273650Y-62817693D01*
X211426815Y-63746926D01*
X211068466Y-63920531D01*
X208995961Y-64864411D01*
X207914926Y-65299259D01*
X206877530Y-65716553D01*
X204611752Y-66510514D01*
X202097203Y-67279853D01*
X199232462Y-68058127D01*
X195916105Y-68878892D01*
X194965656Y-69098609D01*
X193397067Y-69444740D01*
X191529683Y-69843926D01*
X189457347Y-70277236D01*
X187273899Y-70725741D01*
X185073179Y-71170508D01*
X182949030Y-71592609D01*
X180995291Y-71973111D01*
X179305803Y-72293084D01*
X177974408Y-72533597D01*
X177094947Y-72675720D01*
X176674762Y-72744368D01*
X175655085Y-72977938D01*
X174861980Y-73244304D01*
X174825440Y-73260454D01*
X174288310Y-73489099D01*
X173319930Y-73894418D01*
X171995000Y-74445401D01*
X170388221Y-75111043D01*
X168574292Y-75860333D01*
X166627914Y-76662265D01*
X164643404Y-77486723D01*
X162593750Y-78353570D01*
X160662810Y-79184840D01*
X158950314Y-79937166D01*
X157555988Y-80567186D01*
X156579562Y-81031535D01*
X155706269Y-81470769D01*
X154055164Y-82312186D01*
X152260760Y-83237904D01*
X150386990Y-84213883D01*
X148497787Y-85206083D01*
X146657085Y-86180465D01*
X144928816Y-87102987D01*
X143376913Y-87939611D01*
X142065310Y-88656296D01*
X141057939Y-89219003D01*
X140418734Y-89593691D01*
X140211628Y-89746321D01*
X140235318Y-89753820D01*
X140610561Y-89648209D01*
X141323885Y-89347876D01*
X142246012Y-88906209D01*
X142867475Y-88599124D01*
X144084946Y-88009073D01*
X145745611Y-87212322D01*
X147814403Y-86225502D01*
X150256255Y-85065245D01*
X153036100Y-83748183D01*
X156118871Y-82290948D01*
X159469500Y-80710171D01*
X163052920Y-79022484D01*
X166834065Y-77244519D01*
X166973971Y-77178813D01*
X168836666Y-76309752D01*
X170558148Y-75516729D01*
X172065805Y-74832423D01*
X173287020Y-74289515D01*
X174149180Y-73920685D01*
X174579669Y-73758613D01*
X175080921Y-73678051D01*
X175280213Y-73792354D01*
X175045506Y-74107840D01*
X174407425Y-74587356D01*
X173396595Y-75193753D01*
X169369979Y-77420274D01*
X164254210Y-80236351D01*
X159606818Y-82778551D01*
X155419771Y-85051093D01*
X151685035Y-87058195D01*
X148394579Y-88804076D01*
X146156099Y-89971764D01*
X145621019Y-90250885D01*
X145540368Y-90292956D01*
X143114371Y-91529052D01*
X141108554Y-92516584D01*
X139514885Y-93259771D01*
X138325331Y-93762832D01*
X137531858Y-94029985D01*
X137073240Y-94164108D01*
X136515712Y-94407711D01*
X136363238Y-94609522D01*
X135873193Y-94609522D01*
X135563749Y-94307682D01*
X135366375Y-93384247D01*
X135366486Y-93370787D01*
X135538120Y-92640046D01*
X135973443Y-91651335D01*
X136579763Y-90570324D01*
X136796800Y-90250885D01*
X138994947Y-90250885D01*
X139134507Y-90390446D01*
X139274068Y-90250885D01*
X139134507Y-90111325D01*
X138994947Y-90250885D01*
X136796800Y-90250885D01*
X136986443Y-89971764D01*
X139553189Y-89971764D01*
X139692749Y-90111325D01*
X139832309Y-89971764D01*
X139692749Y-89832204D01*
X139553189Y-89971764D01*
X136986443Y-89971764D01*
X137264387Y-89562680D01*
X137934621Y-88794073D01*
X138102482Y-88662473D01*
X138782262Y-88238568D01*
X139811948Y-87667561D01*
X141084308Y-87007728D01*
X142492107Y-86317345D01*
X143492874Y-85837211D01*
X145030772Y-85093482D01*
X146905317Y-84182608D01*
X149029078Y-83147223D01*
X151314620Y-82029960D01*
X153674512Y-80873451D01*
X156021320Y-79720331D01*
X156297904Y-79584250D01*
X158474983Y-78514122D01*
X160520940Y-77510168D01*
X162374177Y-76602493D01*
X163973093Y-75821203D01*
X165256087Y-75196402D01*
X166161561Y-74758196D01*
X166627914Y-74536690D01*
X167604837Y-74091439D01*
X166650101Y-73937096D01*
X166554272Y-73920270D01*
X165914216Y-73730381D01*
X165602192Y-73500014D01*
X165700556Y-73141935D01*
X166166792Y-72532357D01*
X166914656Y-71784192D01*
X167366068Y-71397813D01*
X167604837Y-71397813D01*
X169000441Y-71376004D01*
X169478549Y-71355895D01*
X170863928Y-71227444D01*
X172715477Y-70989615D01*
X174979945Y-70651301D01*
X177604083Y-70221394D01*
X180534639Y-69708788D01*
X183718362Y-69122374D01*
X187102003Y-68471044D01*
X190632309Y-67763691D01*
X192772627Y-67327913D01*
X194958158Y-66885877D01*
X196939111Y-66488236D01*
X198647042Y-66148597D01*
X200013504Y-65880565D01*
X200970053Y-65697744D01*
X201448244Y-65613741D01*
X202134644Y-65468731D01*
X202353062Y-65299259D01*
X202097234Y-65137449D01*
X201409389Y-65008828D01*
X200331760Y-64938920D01*
X199451790Y-64915817D01*
X198345268Y-64879981D01*
X197634353Y-64839311D01*
X197216845Y-64783380D01*
X196990542Y-64701761D01*
X196853242Y-64584028D01*
X196790238Y-64489184D01*
X196982309Y-64543487D01*
X197165760Y-64599573D01*
X197331211Y-64356282D01*
X197518720Y-63991979D01*
X198029013Y-63594841D01*
X198507044Y-63271146D01*
X198726815Y-62972961D01*
X198734117Y-62914259D01*
X198947994Y-62861229D01*
X199085444Y-62838331D01*
X199157687Y-62617918D01*
X199564178Y-62617918D01*
X199703738Y-62757479D01*
X199843298Y-62617918D01*
X199703738Y-62478358D01*
X199564178Y-62617918D01*
X199157687Y-62617918D01*
X199209768Y-62459021D01*
X199211696Y-62338797D01*
X200122419Y-62338797D01*
X200261980Y-62478358D01*
X200401540Y-62338797D01*
X200261980Y-62199237D01*
X200122419Y-62338797D01*
X199211696Y-62338797D01*
X199214675Y-62152969D01*
X199148478Y-61920116D01*
X199116280Y-61930338D01*
X198714188Y-62109113D01*
X197932522Y-62476366D01*
X196865424Y-62987496D01*
X195607034Y-63597905D01*
X195001204Y-63891019D01*
X194037076Y-64339248D01*
X193129832Y-64724147D01*
X192193615Y-65072592D01*
X191142568Y-65411462D01*
X189890836Y-65767635D01*
X188352563Y-66167990D01*
X186441893Y-66639404D01*
X184072969Y-67208754D01*
X181403123Y-67842394D01*
X178163365Y-68597456D01*
X175447921Y-69211831D01*
X173248047Y-69687393D01*
X171554999Y-70026016D01*
X170360030Y-70229577D01*
X169654398Y-70299949D01*
X169011494Y-70455010D01*
X168302639Y-70851984D01*
X167604837Y-71397813D01*
X167366068Y-71397813D01*
X167847241Y-70985961D01*
X168867640Y-70226184D01*
X169878944Y-69593382D01*
X174261583Y-67082809D01*
X175166521Y-67082809D01*
X175493398Y-67178590D01*
X176293188Y-67185401D01*
X176509878Y-67179479D01*
X176953326Y-67164757D01*
X177366615Y-67138395D01*
X177821809Y-67087524D01*
X178390971Y-66999277D01*
X179146167Y-66860784D01*
X180159461Y-66659179D01*
X181502917Y-66381593D01*
X183248600Y-66015158D01*
X185468573Y-65547005D01*
X186334093Y-65360880D01*
X188856968Y-64778116D01*
X191249049Y-64168277D01*
X193426478Y-63555783D01*
X195305393Y-62965055D01*
X196801935Y-62420516D01*
X197832243Y-61946584D01*
X197898236Y-61831132D01*
X197517668Y-61692679D01*
X196611685Y-61581013D01*
X195714339Y-61540302D01*
X194938431Y-61625241D01*
X194111323Y-61887709D01*
X193015355Y-62375811D01*
X191628343Y-62922681D01*
X189804344Y-63433605D01*
X187545819Y-63896197D01*
X184811690Y-64318829D01*
X181560881Y-64709870D01*
X181158471Y-64756556D01*
X179155375Y-65102395D01*
X177440172Y-65591033D01*
X176102194Y-66191921D01*
X175230775Y-66874511D01*
X175166521Y-67082809D01*
X174261583Y-67082809D01*
X174997319Y-66661346D01*
X180113197Y-63533867D01*
X181898666Y-62367866D01*
X183913467Y-62367866D01*
X183984048Y-62425634D01*
X184491650Y-62434250D01*
X184498798Y-62434179D01*
X185157904Y-62378033D01*
X186217150Y-62233897D01*
X187531917Y-62023347D01*
X188957584Y-61767961D01*
X188986132Y-61762569D01*
X190406197Y-61494868D01*
X191706085Y-61250667D01*
X192743020Y-61056736D01*
X193374228Y-60939845D01*
X193835128Y-60836783D01*
X194104632Y-60657650D01*
X193968073Y-60368459D01*
X193967804Y-60368135D01*
X193799122Y-60138455D01*
X193807804Y-60023119D01*
X194063670Y-60036395D01*
X194636539Y-60192548D01*
X195596228Y-60505845D01*
X197012557Y-60990552D01*
X197299543Y-61088790D01*
X198800951Y-61563049D01*
X199929594Y-61831132D01*
X200072302Y-61865029D01*
X201353807Y-62041752D01*
X202885681Y-62140242D01*
X204020662Y-62165422D01*
X205706804Y-62143344D01*
X207525169Y-62067783D01*
X209360679Y-61947912D01*
X211098257Y-61792903D01*
X212622826Y-61611927D01*
X213819309Y-61414156D01*
X214572629Y-61208763D01*
X214706259Y-61147305D01*
X215259227Y-60817064D01*
X215855756Y-60380200D01*
X216397219Y-59924225D01*
X216784990Y-59536649D01*
X216920442Y-59304986D01*
X216704949Y-59316746D01*
X216407857Y-59384034D01*
X216421675Y-59176341D01*
X216484672Y-59065029D01*
X216477692Y-58869837D01*
X216076571Y-59026596D01*
X215265785Y-59540195D01*
X214975288Y-59729576D01*
X214410363Y-60043004D01*
X214131904Y-60112751D01*
X214174808Y-59969619D01*
X214504926Y-59589708D01*
X215000033Y-59132613D01*
X215496128Y-58746488D01*
X215829205Y-58579486D01*
X216040460Y-58493532D01*
X216574140Y-58088755D01*
X217105047Y-57593742D01*
X221614727Y-57593742D01*
X221754287Y-57733303D01*
X221893848Y-57593742D01*
X221754287Y-57454182D01*
X221614727Y-57593742D01*
X217105047Y-57593742D01*
X217229276Y-57477912D01*
X217867967Y-56801472D01*
X217904272Y-56756380D01*
X218544397Y-56756380D01*
X218683958Y-56895940D01*
X218823518Y-56756380D01*
X218683958Y-56616819D01*
X218544397Y-56756380D01*
X217904272Y-56756380D01*
X218352311Y-56199907D01*
X218544408Y-55813688D01*
X218534012Y-55705200D01*
X218356243Y-55499020D01*
X217864841Y-55416581D01*
X216939463Y-55429043D01*
X216280339Y-55454462D01*
X215280928Y-55484072D01*
X214566925Y-55494389D01*
X214044482Y-55576217D01*
X213799342Y-55914583D01*
X213799247Y-55938261D01*
X213729077Y-56272804D01*
X213450212Y-56263516D01*
X212847558Y-55909821D01*
X212471078Y-55682389D01*
X212196987Y-55671544D01*
X212046147Y-56049382D01*
X212021045Y-56129891D01*
X211666220Y-56539361D01*
X211189711Y-56569094D01*
X210827428Y-56191565D01*
X210780199Y-56094373D01*
X210431057Y-55887739D01*
X209716645Y-55944082D01*
X208978370Y-55989353D01*
X208368091Y-55789088D01*
X207883245Y-55554103D01*
X206884743Y-55320865D01*
X205542074Y-55148454D01*
X203971031Y-55044052D01*
X202287408Y-55014844D01*
X200606998Y-55068013D01*
X199045595Y-55210742D01*
X198922181Y-55227134D01*
X196690393Y-55687051D01*
X194679562Y-56457577D01*
X194595221Y-56497939D01*
X193283287Y-57149189D01*
X192425315Y-57641240D01*
X191961381Y-58022631D01*
X191831562Y-58341903D01*
X191975935Y-58647595D01*
X192121699Y-58913253D01*
X191925815Y-59100061D01*
X191267597Y-59256508D01*
X191180355Y-59273701D01*
X190182376Y-59582127D01*
X189236705Y-60024671D01*
X188211348Y-60622378D01*
X187205272Y-61178931D01*
X186420229Y-61558587D01*
X185714360Y-61828496D01*
X184945805Y-62055807D01*
X184317997Y-62229206D01*
X183913467Y-62367866D01*
X181898666Y-62367866D01*
X184956035Y-60371251D01*
X189391483Y-57258430D01*
X189781161Y-56973889D01*
X192705001Y-54856298D01*
X195261498Y-53042563D01*
X197512692Y-51494007D01*
X199520622Y-50171952D01*
X201347326Y-49037719D01*
X203054844Y-48052631D01*
X204705216Y-47178009D01*
X206360479Y-46375174D01*
X208082674Y-45605450D01*
X209606292Y-44949072D01*
X210876877Y-44383211D01*
X211770938Y-43927452D01*
X212357760Y-43518177D01*
X212706631Y-43091769D01*
X212886838Y-42584610D01*
X212967669Y-41933082D01*
X213018409Y-41073567D01*
X213050451Y-40629367D01*
X213310183Y-38994134D01*
X213831571Y-37612158D01*
X214694733Y-36317628D01*
X215979787Y-34944735D01*
X216361676Y-34582816D01*
X217657899Y-33480895D01*
X218931425Y-32653829D01*
X220374918Y-31990913D01*
X222181044Y-31381440D01*
X223167215Y-31091075D01*
X225111546Y-30591330D01*
X226728971Y-30321748D01*
X228147079Y-30285022D01*
X229493457Y-30483847D01*
X230895694Y-30920916D01*
X232481377Y-31598923D01*
X233177176Y-31902181D01*
X233846354Y-32144317D01*
X234172879Y-32195156D01*
X234193654Y-32186483D01*
X234606960Y-32118556D01*
X235427253Y-32030345D01*
X236534163Y-31930686D01*
X237807323Y-31828417D01*
X239126365Y-31732374D01*
X240370919Y-31651394D01*
X241420618Y-31594314D01*
X242155092Y-31569971D01*
X242453974Y-31587202D01*
X242458626Y-31593574D01*
X242357618Y-31878362D01*
X242008778Y-32386296D01*
X241694408Y-32683008D01*
X240971126Y-33103465D01*
X240948298Y-33112966D01*
G37*
%TO.C,J4*%
X150550000Y-52393750D02*
X150550000Y-60693750D01*
X148810000Y-52393750D02*
X150550000Y-52393750D01*
X144750000Y-52393750D02*
X146090000Y-52393750D01*
X144750000Y-53883750D02*
X144750000Y-52393750D01*
X144750000Y-53883750D02*
X143550000Y-53883750D01*
X144750000Y-59203750D02*
X144750000Y-60693750D01*
X150550000Y-60693750D02*
X148810000Y-60693750D01*
X144750000Y-60693750D02*
X146090000Y-60693750D01*
%TO.C,D38*%
X203787500Y-91110000D02*
X203787500Y-87250000D01*
X205787500Y-91110000D02*
X203787500Y-91110000D01*
X205787500Y-91110000D02*
X205787500Y-87250000D01*
%TO.C,J1*%
X99675197Y-34777500D02*
X97175197Y-34777500D01*
X97175197Y-34777500D02*
X97175197Y-35827500D01*
X97175197Y-35827500D02*
X96185197Y-35827500D01*
X101645197Y-35947500D02*
X101645197Y-39827500D01*
X99675197Y-40997500D02*
X97175197Y-40997500D01*
X97175197Y-40997500D02*
X97175197Y-39947500D01*
D10*
%TO.C,MX35*%
X147739824Y-84436030D02*
X147739824Y-84906030D01*
X147739824Y-81356030D02*
X147739824Y-81586030D01*
X147239824Y-85406030D02*
X142675000Y-85406030D01*
X146189824Y-81356030D02*
X147739824Y-81356030D01*
X138789824Y-81356030D02*
X144689824Y-81356030D01*
X136789824Y-87006030D02*
X136789824Y-87246030D01*
X136789824Y-84156030D02*
X136789824Y-83356030D01*
X147239824Y-85406030D02*
G75*
G03*
X147739824Y-84906030I-1J500001D01*
G01*
X142675000Y-85406030D02*
G75*
G03*
X140380678Y-87246030I-863J-2349335D01*
G01*
X138789824Y-81356030D02*
G75*
G03*
X136789824Y-83356030I5J-2000005D01*
G01*
D11*
%TO.C,D17*%
X184991623Y-53010000D02*
X184991623Y-49150000D01*
X186991623Y-53010000D02*
X184991623Y-53010000D01*
X186991623Y-53010000D02*
X186991623Y-49150000D01*
D10*
%TO.C,MX20*%
X248909848Y-50003197D02*
X248844436Y-50468623D01*
X249338501Y-46953171D02*
X249306491Y-47180933D01*
X248279716Y-50894170D02*
X243759316Y-50258870D01*
X247803585Y-46737453D02*
X249338501Y-46953171D01*
X240475602Y-45707572D02*
X246318183Y-46528693D01*
X237708738Y-51024240D02*
X237675336Y-51261905D01*
X238105381Y-48201976D02*
X238216719Y-47409762D01*
X248279716Y-50894169D02*
G75*
G03*
X248844436Y-50468623I69586J495134D01*
G01*
X243759316Y-50258870D02*
G75*
G03*
X241231245Y-51761655I-327818J-2326351D01*
G01*
X240475602Y-45707572D02*
G75*
G03*
X238216720Y-47409762I-278342J-1980542D01*
G01*
%TO.C,G\u002A\u002A\u002A*%
G36*
X66119735Y-56297654D02*
G01*
X66160013Y-56397424D01*
X66193055Y-56558498D01*
X66202861Y-56625681D01*
X66238875Y-56850039D01*
X66273352Y-57039118D01*
X66314560Y-57243017D01*
X66441731Y-56958891D01*
X66488406Y-56848999D01*
X66546290Y-56690693D01*
X66568902Y-56594786D01*
X66580403Y-56556049D01*
X66660214Y-56514806D01*
X66706846Y-56527947D01*
X66724069Y-56585301D01*
X66697230Y-56701762D01*
X66622701Y-56891879D01*
X66496857Y-57170196D01*
X66481876Y-57201992D01*
X66389221Y-57385280D01*
X66313190Y-57514514D01*
X66269003Y-57563430D01*
X66260356Y-57559749D01*
X66223571Y-57485220D01*
X66192556Y-57344966D01*
X66178327Y-57252233D01*
X66142151Y-57031387D01*
X66102531Y-56802583D01*
X66063945Y-56566800D01*
X66047765Y-56397027D01*
X66059579Y-56307733D01*
X66099278Y-56281778D01*
X66119735Y-56297654D01*
G37*
G36*
X67627873Y-61436709D02*
G01*
X67783405Y-61492516D01*
X67888057Y-61623970D01*
X67938230Y-61802394D01*
X67930323Y-61999108D01*
X67860737Y-62185433D01*
X67725871Y-62332692D01*
X67707167Y-62343241D01*
X67591101Y-62376239D01*
X67432322Y-62397226D01*
X67270183Y-62404077D01*
X67144035Y-62394664D01*
X67093229Y-62366864D01*
X67122760Y-62321166D01*
X67209728Y-62236356D01*
X67308076Y-62124816D01*
X67310063Y-62047500D01*
X67213166Y-62018940D01*
X67146255Y-62009623D01*
X67064086Y-61960683D01*
X67060580Y-61949512D01*
X67108548Y-61917301D01*
X67228287Y-61903803D01*
X67385204Y-61910567D01*
X67544705Y-61939145D01*
X67566784Y-61945666D01*
X67660883Y-62000105D01*
X67659361Y-62053266D01*
X67559269Y-62077197D01*
X67491324Y-62093416D01*
X67442756Y-62164582D01*
X67444384Y-62188279D01*
X67490982Y-62252446D01*
X67581448Y-62241804D01*
X67688182Y-62166659D01*
X67783584Y-62037318D01*
X67812584Y-61962344D01*
X67815502Y-61810935D01*
X67758400Y-61684133D01*
X67662473Y-61604249D01*
X67548916Y-61593594D01*
X67438921Y-61674482D01*
X67362462Y-61749738D01*
X67303324Y-61737705D01*
X67308075Y-61657644D01*
X67383370Y-61557031D01*
X67496615Y-61472115D01*
X67613365Y-61436371D01*
X67627873Y-61436709D01*
G37*
G36*
X67571143Y-56573255D02*
G01*
X67771986Y-56580426D01*
X67913127Y-56595875D01*
X67966175Y-56616755D01*
X67952921Y-56677217D01*
X67850504Y-56771614D01*
X67641773Y-56831569D01*
X67598774Y-56839554D01*
X67371242Y-56908953D01*
X67180789Y-57008938D01*
X67046234Y-57124153D01*
X66986398Y-57239242D01*
X67020099Y-57338847D01*
X67123622Y-57398849D01*
X67305693Y-57447270D01*
X67502550Y-57464501D01*
X67660040Y-57441827D01*
X67759626Y-57378420D01*
X67835145Y-57266519D01*
X67835900Y-57263655D01*
X67870609Y-57188928D01*
X67914212Y-57222627D01*
X67919975Y-57303850D01*
X67837717Y-57431451D01*
X67774222Y-57483590D01*
X67578087Y-57558249D01*
X67345515Y-57572252D01*
X67119973Y-57526135D01*
X66944924Y-57420436D01*
X66931802Y-57407082D01*
X66839657Y-57297337D01*
X66801930Y-57222571D01*
X66836843Y-57153215D01*
X66943879Y-57043043D01*
X67090715Y-56925407D01*
X67244155Y-56826548D01*
X67371003Y-56772708D01*
X67514830Y-56738871D01*
X67581376Y-56713445D01*
X67533098Y-56700066D01*
X67369935Y-56694176D01*
X67278453Y-56689364D01*
X67145484Y-56666160D01*
X67093214Y-56631320D01*
X67093623Y-56628588D01*
X67156535Y-56599859D01*
X67309985Y-56580291D01*
X67530141Y-56573063D01*
X67571143Y-56573255D01*
G37*
G36*
X66546439Y-59018896D02*
G01*
X66703797Y-59082145D01*
X66809749Y-59220714D01*
X66856164Y-59405602D01*
X66834911Y-59607806D01*
X66737858Y-59798326D01*
X66677748Y-59865982D01*
X66561063Y-59932170D01*
X66389904Y-59940528D01*
X66349123Y-59938779D01*
X66203758Y-59944197D01*
X66125437Y-59966056D01*
X66114044Y-59974720D01*
X66033587Y-59972135D01*
X66026501Y-59963471D01*
X66050020Y-59894161D01*
X66139393Y-59792189D01*
X66298207Y-59645005D01*
X66113142Y-59567191D01*
X65976097Y-59502858D01*
X65941470Y-59465369D01*
X66017016Y-59454908D01*
X66204797Y-59469273D01*
X66368198Y-59492652D01*
X66512409Y-59526433D01*
X66593083Y-59560342D01*
X66593285Y-59586866D01*
X66496081Y-59598495D01*
X66478769Y-59598900D01*
X66367097Y-59628009D01*
X66335875Y-59716780D01*
X66352094Y-59784725D01*
X66423260Y-59833294D01*
X66469598Y-59825166D01*
X66595227Y-59745271D01*
X66699903Y-59615502D01*
X66743673Y-59479922D01*
X66712076Y-59316535D01*
X66633565Y-59196669D01*
X66532986Y-59135719D01*
X66435183Y-59148725D01*
X66365003Y-59250725D01*
X66363146Y-59256418D01*
X66305070Y-59350970D01*
X66246239Y-59353828D01*
X66219361Y-59262376D01*
X66235912Y-59170862D01*
X66337957Y-59058215D01*
X66518994Y-59017697D01*
X66546439Y-59018896D01*
G37*
G36*
X67952861Y-58866583D02*
G01*
X67936431Y-58964193D01*
X67917064Y-59052087D01*
X67892570Y-59237092D01*
X67875925Y-59451705D01*
X67867837Y-59612855D01*
X67859260Y-59782616D01*
X67854419Y-59876986D01*
X67820549Y-59944840D01*
X67762017Y-59931620D01*
X67725897Y-59847858D01*
X67725259Y-59838559D01*
X67724017Y-59704149D01*
X67730460Y-59532008D01*
X67729636Y-59460592D01*
X67678330Y-59283015D01*
X67573847Y-59154194D01*
X67440739Y-59088805D01*
X67303555Y-59101526D01*
X67186847Y-59207032D01*
X67176422Y-59225407D01*
X67162856Y-59359741D01*
X67252341Y-59479892D01*
X67433134Y-59568621D01*
X67447258Y-59573021D01*
X67567973Y-59623675D01*
X67617526Y-59669074D01*
X67615139Y-59681013D01*
X67546206Y-59747466D01*
X67412055Y-59815587D01*
X67253329Y-59867906D01*
X67110672Y-59886951D01*
X66947572Y-59882352D01*
X67122343Y-59820719D01*
X67221697Y-59785302D01*
X67300247Y-59741653D01*
X67284764Y-59684743D01*
X67184130Y-59579964D01*
X67171651Y-59567034D01*
X67074705Y-59428940D01*
X67034957Y-59301653D01*
X67046035Y-59214280D01*
X67134305Y-59065233D01*
X67285872Y-58979544D01*
X67470690Y-58969465D01*
X67658713Y-59047252D01*
X67726309Y-59091249D01*
X67779933Y-59094153D01*
X67802753Y-59008122D01*
X67829351Y-58927658D01*
X67900360Y-58855161D01*
X67906108Y-58853373D01*
X67952861Y-58866583D01*
G37*
G36*
X65906872Y-59156866D02*
G01*
X65903780Y-59163732D01*
X65868767Y-59320401D01*
X65845889Y-59519327D01*
X65838958Y-59608710D01*
X65813334Y-59776180D01*
X65799328Y-59805375D01*
X65766676Y-59873438D01*
X65686079Y-59933968D01*
X65617230Y-59961855D01*
X65419078Y-59964888D01*
X65237871Y-59862966D01*
X65210088Y-59824910D01*
X65208359Y-59779033D01*
X65355694Y-59779033D01*
X65403765Y-59831218D01*
X65546515Y-59886858D01*
X65686705Y-59839684D01*
X65725128Y-59805375D01*
X65703813Y-59751325D01*
X65678628Y-59723325D01*
X65674698Y-59627529D01*
X65682232Y-59604141D01*
X65667075Y-59547864D01*
X65585406Y-59566347D01*
X65453911Y-59657339D01*
X65389446Y-59715476D01*
X65355694Y-59779033D01*
X65208359Y-59779033D01*
X65205701Y-59708534D01*
X65278367Y-59591236D01*
X65409533Y-59511050D01*
X65458319Y-59493605D01*
X65489674Y-59459519D01*
X65453491Y-59395908D01*
X65342223Y-59276464D01*
X65320644Y-59254030D01*
X65219992Y-59135755D01*
X65201287Y-59080384D01*
X65377399Y-59080384D01*
X65417001Y-59162972D01*
X65514735Y-59274542D01*
X65620881Y-59367824D01*
X65681136Y-59387720D01*
X65716562Y-59336949D01*
X65758469Y-59156866D01*
X65714357Y-59051720D01*
X65581974Y-59017697D01*
X65454558Y-59031578D01*
X65380146Y-59067039D01*
X65377399Y-59080384D01*
X65201287Y-59080384D01*
X65193598Y-59057622D01*
X65229185Y-58988339D01*
X65270945Y-58952468D01*
X65401558Y-58913279D01*
X65619762Y-58908649D01*
X65763517Y-58918518D01*
X65920597Y-58952144D01*
X65974486Y-59010949D01*
X65932696Y-59099517D01*
X65906872Y-59156866D01*
G37*
G36*
X66155453Y-61145284D02*
G01*
X66195617Y-61203235D01*
X66248650Y-61344421D01*
X66303559Y-61539879D01*
X66329314Y-61643494D01*
X66391601Y-61868456D01*
X66442368Y-61987875D01*
X66489942Y-62008242D01*
X66542649Y-61936045D01*
X66608815Y-61777771D01*
X66661683Y-61651105D01*
X66733826Y-61513018D01*
X66787139Y-61451011D01*
X66801334Y-61450801D01*
X66855195Y-61514832D01*
X66909623Y-61658231D01*
X66959119Y-61852153D01*
X66998184Y-62067756D01*
X67021322Y-62276195D01*
X67023032Y-62448629D01*
X66997818Y-62556214D01*
X66954541Y-62570340D01*
X66913792Y-62489247D01*
X66882117Y-62333969D01*
X66865994Y-62125654D01*
X66861783Y-62025380D01*
X66839929Y-61855506D01*
X66800539Y-61800035D01*
X66741929Y-61858169D01*
X66662418Y-62029111D01*
X66572750Y-62222973D01*
X66487941Y-62325539D01*
X66413549Y-62313765D01*
X66346335Y-62186929D01*
X66283059Y-61944305D01*
X66238094Y-61759794D01*
X66179803Y-61615407D01*
X66124889Y-61585103D01*
X66075565Y-61669549D01*
X66034048Y-61869410D01*
X66013917Y-62000167D01*
X65974431Y-62185089D01*
X65930510Y-62282108D01*
X65875311Y-62310224D01*
X65848247Y-62268540D01*
X65847187Y-62135069D01*
X65875370Y-61930836D01*
X65930888Y-61677554D01*
X65980481Y-61481810D01*
X65579888Y-61504446D01*
X65410055Y-61520376D01*
X65147023Y-61586775D01*
X64989884Y-61699403D01*
X64937710Y-61858769D01*
X64983150Y-62025801D01*
X65115438Y-62193137D01*
X65304541Y-62330630D01*
X65520113Y-62421495D01*
X65731809Y-62448945D01*
X65909283Y-62396195D01*
X65979118Y-62352860D01*
X66033400Y-62340323D01*
X66044590Y-62397708D01*
X66030249Y-62459395D01*
X65936000Y-62535641D01*
X65774171Y-62562018D01*
X65568778Y-62539678D01*
X65343835Y-62469776D01*
X65123356Y-62353464D01*
X64926478Y-62188748D01*
X64801557Y-61992695D01*
X64780569Y-61799383D01*
X64864628Y-61623054D01*
X65054848Y-61477951D01*
X65077269Y-61466893D01*
X65234480Y-61413220D01*
X65434147Y-61389379D01*
X65712416Y-61390566D01*
X65891991Y-61396493D01*
X66046448Y-61395703D01*
X66123383Y-61379413D01*
X66145042Y-61341580D01*
X66133669Y-61276165D01*
X66124903Y-61192232D01*
X66153719Y-61145087D01*
X66155453Y-61145284D01*
G37*
%TO.C,MX24*%
X128689824Y-65386030D02*
X128689824Y-65856030D01*
X128689824Y-62306030D02*
X128689824Y-62536030D01*
X128189824Y-66356030D02*
X123625000Y-66356030D01*
X127139824Y-62306030D02*
X128689824Y-62306030D01*
X119739824Y-62306030D02*
X125639824Y-62306030D01*
X117739824Y-67956030D02*
X117739824Y-68196030D01*
X117739824Y-65106030D02*
X117739824Y-64306030D01*
X128189824Y-66356030D02*
G75*
G03*
X128689824Y-65856030I-1J500001D01*
G01*
X123625000Y-66356030D02*
G75*
G03*
X121330678Y-68196030I-863J-2349335D01*
G01*
X119739824Y-62306030D02*
G75*
G03*
X117739824Y-64306030I5J-2000005D01*
G01*
%TO.C,MX26*%
X168377324Y-65386030D02*
X168377324Y-65856030D01*
X168377324Y-62306030D02*
X168377324Y-62536030D01*
X167877324Y-66356030D02*
X163312500Y-66356030D01*
X166827324Y-62306030D02*
X168377324Y-62306030D01*
X159427324Y-62306030D02*
X165327324Y-62306030D01*
X157427324Y-67956030D02*
X157427324Y-68196030D01*
X157427324Y-65106030D02*
X157427324Y-64306030D01*
X167877324Y-66356030D02*
G75*
G03*
X168377324Y-65856030I-1J500001D01*
G01*
X163312500Y-66356030D02*
G75*
G03*
X161018178Y-68196030I-863J-2349335D01*
G01*
X159427324Y-62306030D02*
G75*
G03*
X157427324Y-64306030I5J-2000005D01*
G01*
D11*
%TO.C,R1*%
X74804812Y-81832138D02*
X74804812Y-81357622D01*
X75849812Y-81832138D02*
X75849812Y-81357622D01*
%TO.C,C2*%
X86802500Y-38240580D02*
X86802500Y-37959420D01*
X87822500Y-38240580D02*
X87822500Y-37959420D01*
%TO.C,D27*%
X184737500Y-72060000D02*
X184737500Y-68200000D01*
X186737500Y-72060000D02*
X184737500Y-72060000D01*
X186737500Y-72060000D02*
X186737500Y-68200000D01*
%TO.C,C10*%
X88998170Y-88780539D02*
X88998170Y-89061699D01*
X87978170Y-88780539D02*
X87978170Y-89061699D01*
%TO.C,D19*%
X224736492Y-54597499D02*
X224736492Y-50737499D01*
X226736492Y-54597499D02*
X224736492Y-54597499D01*
X226736492Y-54597499D02*
X226736492Y-50737499D01*
%TO.C,C3*%
X91158511Y-77099086D02*
X91439671Y-77099086D01*
X91158511Y-78119086D02*
X91439671Y-78119086D01*
%TO.C,D40*%
X240271408Y-94807194D02*
X240271408Y-90947194D01*
X242271408Y-94807194D02*
X240271408Y-94807194D01*
X242271408Y-94807194D02*
X242271408Y-90947194D01*
D10*
%TO.C,MX5*%
X147739824Y-27286030D02*
X147739824Y-27756030D01*
X147739824Y-24206030D02*
X147739824Y-24436030D01*
X147239824Y-28256030D02*
X142675000Y-28256030D01*
X146189824Y-24206030D02*
X147739824Y-24206030D01*
X138789824Y-24206030D02*
X144689824Y-24206030D01*
X136789824Y-29856030D02*
X136789824Y-30096030D01*
X136789824Y-27006030D02*
X136789824Y-26206030D01*
X147239824Y-28256030D02*
G75*
G03*
X147739824Y-27756030I-1J500001D01*
G01*
X142675000Y-28256030D02*
G75*
G03*
X140380678Y-30096030I-863J-2349335D01*
G01*
X138789824Y-24206030D02*
G75*
G03*
X136789824Y-26206030I5J-2000005D01*
G01*
%TO.C,MX37*%
X187427324Y-84436030D02*
X187427324Y-84906030D01*
X187427324Y-81356030D02*
X187427324Y-81586030D01*
X186927324Y-85406030D02*
X182362500Y-85406030D01*
X185877324Y-81356030D02*
X187427324Y-81356030D01*
X178477324Y-81356030D02*
X184377324Y-81356030D01*
X176477324Y-87006030D02*
X176477324Y-87246030D01*
X176477324Y-84156030D02*
X176477324Y-83356030D01*
X186927324Y-85406030D02*
G75*
G03*
X187427324Y-84906030I-1J500001D01*
G01*
X182362500Y-85406030D02*
G75*
G03*
X180068178Y-87246030I-863J-2349335D01*
G01*
X178477324Y-81356030D02*
G75*
G03*
X176477324Y-83356030I5J-2000005D01*
G01*
D11*
%TO.C,D3*%
X106950000Y-33960000D02*
X106950000Y-30100000D01*
X108950000Y-33960000D02*
X106950000Y-33960000D01*
X108950000Y-33960000D02*
X108950000Y-30100000D01*
D10*
%TO.C,MX7*%
X187427324Y-27286030D02*
X187427324Y-27756030D01*
X187427324Y-24206030D02*
X187427324Y-24436030D01*
X186927324Y-28256030D02*
X182362500Y-28256030D01*
X185877324Y-24206030D02*
X187427324Y-24206030D01*
X178477324Y-24206030D02*
X184377324Y-24206030D01*
X176477324Y-29856030D02*
X176477324Y-30096030D01*
X176477324Y-27006030D02*
X176477324Y-26206030D01*
X186927324Y-28256030D02*
G75*
G03*
X187427324Y-27756030I-1J500001D01*
G01*
X182362500Y-28256030D02*
G75*
G03*
X180068178Y-30096030I-863J-2349335D01*
G01*
X178477324Y-24206030D02*
G75*
G03*
X176477324Y-26206030I5J-2000005D01*
G01*
D11*
%TO.C,D24*%
X126000000Y-72060000D02*
X126000000Y-68200000D01*
X128000000Y-72060000D02*
X126000000Y-72060000D01*
X128000000Y-72060000D02*
X128000000Y-68200000D01*
%TO.C,D29*%
X223322872Y-73572184D02*
X223322872Y-69712184D01*
X225322872Y-73572184D02*
X223322872Y-73572184D01*
X225322872Y-73572184D02*
X225322872Y-69712184D01*
%TO.C,D15*%
X131556250Y-49041250D02*
X131556250Y-45181250D01*
X133556250Y-49041250D02*
X131556250Y-49041250D01*
X133556250Y-49041250D02*
X133556250Y-45181250D01*
%TO.C,J2*%
X102046250Y-34477500D02*
X98716250Y-34477500D01*
X98716250Y-34477500D02*
X98716250Y-35527500D01*
X98716250Y-35527500D02*
X98506250Y-35527500D01*
X103436250Y-35547500D02*
X103436250Y-36047500D01*
X97652697Y-35837500D02*
X98006250Y-36087500D01*
X103436250Y-36047500D02*
X102936250Y-36347500D01*
X98006250Y-36087500D02*
X97652697Y-36337500D01*
X97652697Y-36337500D02*
X97652697Y-35837500D01*
X102936250Y-36347500D02*
X102936250Y-39427500D01*
X102936250Y-39427500D02*
X103436250Y-39727500D01*
X103436250Y-39727500D02*
X103436250Y-40227500D01*
X102046250Y-41297500D02*
X98716250Y-41297500D01*
X98716250Y-41297500D02*
X98716250Y-40247500D01*
%TO.C,R2*%
X68533750Y-75624758D02*
X68533750Y-75150242D01*
X69578750Y-75624758D02*
X69578750Y-75150242D01*
%TO.C,U2*%
X90487500Y-36540000D02*
X89837500Y-36540000D01*
X90487500Y-36540000D02*
X91137500Y-36540000D01*
X90487500Y-39660000D02*
X88812500Y-39660000D01*
X90487500Y-39660000D02*
X91137500Y-39660000D01*
%TO.C,R3*%
X71708750Y-75624758D02*
X71708750Y-75150242D01*
X72753750Y-75624758D02*
X72753750Y-75150242D01*
D10*
%TO.C,MX2*%
X86866608Y-27749367D02*
X86899393Y-28218222D01*
X86651758Y-24676869D02*
X86667802Y-24906309D01*
X86435490Y-28751882D02*
X81881785Y-29070308D01*
X85105534Y-24784992D02*
X86651758Y-24676869D01*
X77723560Y-25301190D02*
X83609188Y-24889626D01*
X76122556Y-31076940D02*
X76139297Y-31316355D01*
X75923750Y-28233882D02*
X75867945Y-27435831D01*
X86435490Y-28751881D02*
G75*
G03*
X86899392Y-28218222I-34880J498782D01*
G01*
X81881785Y-29070308D02*
G75*
G03*
X79721404Y-31065870I163018J-2343669D01*
G01*
X77723560Y-25301190D02*
G75*
G03*
X75867946Y-27435831I139518J-1995132D01*
G01*
D11*
%TO.C,D36*%
X159337500Y-91903750D02*
X159337500Y-88043750D01*
X161337500Y-91903750D02*
X159337500Y-91903750D01*
X161337500Y-91903750D02*
X161337500Y-88043750D01*
D10*
%TO.C,MX21*%
X69645936Y-67519540D02*
X69711347Y-67984966D01*
X69217283Y-64469514D02*
X69249293Y-64697276D01*
X69285800Y-68549686D02*
X64765400Y-69184987D01*
X67682367Y-64685232D02*
X69217283Y-64469514D01*
X60354384Y-65715113D02*
X66196965Y-64893992D01*
X59160175Y-71588474D02*
X59193577Y-71826138D01*
X58763532Y-68766210D02*
X58652194Y-67973996D01*
X69285800Y-68549685D02*
G75*
G03*
X69711346Y-67984966I-69588J495134D01*
G01*
X64765400Y-69184988D02*
G75*
G03*
X62749485Y-71326388I326110J-2326591D01*
G01*
X60354384Y-65715114D02*
G75*
G03*
X58652194Y-67973996I278351J-1980540D01*
G01*
%TO.C,G\u002A\u002A\u002A*%
G36*
X61730813Y-80026200D02*
G01*
X61760524Y-80127634D01*
X61764113Y-80263345D01*
X61741651Y-80386964D01*
X61693206Y-80452122D01*
X61677446Y-80454494D01*
X61634793Y-80399828D01*
X61621065Y-80238287D01*
X61621389Y-80209973D01*
X61642543Y-80054987D01*
X61693886Y-80000417D01*
X61730813Y-80026200D01*
G37*
G36*
X63849933Y-80037562D02*
G01*
X63862592Y-80058297D01*
X63877828Y-80168750D01*
X63866812Y-80315162D01*
X63835821Y-80446788D01*
X63791133Y-80512883D01*
X63775058Y-80515366D01*
X63732068Y-80461970D01*
X63718312Y-80302613D01*
X63718679Y-80273197D01*
X63739570Y-80107908D01*
X63786249Y-80023467D01*
X63849933Y-80037562D01*
G37*
G36*
X63713175Y-78434746D02*
G01*
X63920939Y-78470492D01*
X64102917Y-78522952D01*
X64115214Y-78527735D01*
X64211394Y-78585890D01*
X64199678Y-78645202D01*
X64160654Y-78666257D01*
X64032967Y-78665341D01*
X63817120Y-78613908D01*
X63682484Y-78577658D01*
X63495860Y-78536654D01*
X63370931Y-78520696D01*
X63296772Y-78507742D01*
X63285774Y-78455338D01*
X63360211Y-78424974D01*
X63514606Y-78418609D01*
X63713175Y-78434746D01*
G37*
G36*
X61803111Y-80828496D02*
G01*
X61818662Y-80831884D01*
X61961005Y-80867623D01*
X62043427Y-80896420D01*
X62090834Y-80956750D01*
X62044100Y-81009499D01*
X61919482Y-81031774D01*
X61747074Y-81070329D01*
X61651352Y-81175079D01*
X61651493Y-81327155D01*
X61664749Y-81418204D01*
X61612614Y-81427407D01*
X61547880Y-81366455D01*
X61514479Y-81238100D01*
X61528657Y-81097078D01*
X61592772Y-80994830D01*
X61642866Y-80938753D01*
X61648739Y-80854649D01*
X61639636Y-80834238D01*
X61673520Y-80810016D01*
X61803111Y-80828496D01*
G37*
G36*
X63533223Y-76898832D02*
G01*
X63696007Y-76927241D01*
X63893083Y-76969710D01*
X64213496Y-77044980D01*
X64022256Y-77144494D01*
X63921870Y-77205116D01*
X63872097Y-77278622D01*
X63925711Y-77356802D01*
X64086112Y-77456256D01*
X64111933Y-77470196D01*
X64211986Y-77529860D01*
X64217722Y-77558999D01*
X64137307Y-77576848D01*
X64008656Y-77565748D01*
X63856798Y-77501869D01*
X63815845Y-77473105D01*
X63740998Y-77377206D01*
X63747098Y-77240605D01*
X63761308Y-77145495D01*
X63727302Y-77075683D01*
X63605913Y-77036049D01*
X63492866Y-77001274D01*
X63405637Y-76950638D01*
X63391303Y-76908169D01*
X63467282Y-76891972D01*
X63533223Y-76898832D01*
G37*
G36*
X61460858Y-78951465D02*
G01*
X61635866Y-78986750D01*
X61839528Y-79024627D01*
X61899942Y-79036631D01*
X62009170Y-79079781D01*
X62003298Y-79135179D01*
X61883221Y-79206547D01*
X61820861Y-79238949D01*
X61747001Y-79317921D01*
X61787723Y-79398399D01*
X61943826Y-79484039D01*
X61946567Y-79485190D01*
X62076986Y-79561098D01*
X62115250Y-79623887D01*
X62064221Y-79650868D01*
X61926760Y-79619350D01*
X61745646Y-79531637D01*
X61648231Y-79424269D01*
X61632712Y-79282865D01*
X61634979Y-79212230D01*
X61591047Y-79133673D01*
X61460858Y-79080092D01*
X61443396Y-79074817D01*
X61321448Y-79021342D01*
X61271523Y-78968410D01*
X61271669Y-78965911D01*
X61326664Y-78938115D01*
X61460858Y-78951465D01*
G37*
G36*
X61907380Y-82282935D02*
G01*
X61992799Y-82343940D01*
X62022655Y-82384212D01*
X62074590Y-82543534D01*
X62086121Y-82740145D01*
X62051758Y-82920358D01*
X62016215Y-82970594D01*
X61904195Y-83009400D01*
X61769907Y-82981264D01*
X61658152Y-82889678D01*
X61584847Y-82817861D01*
X61509207Y-82805731D01*
X61470231Y-82807443D01*
X61446294Y-82728099D01*
X61450027Y-82671841D01*
X61496165Y-82585396D01*
X61587403Y-82600466D01*
X61714200Y-82717432D01*
X61745707Y-82753570D01*
X61849496Y-82855172D01*
X61917528Y-82895994D01*
X61948129Y-82865958D01*
X61967868Y-82758353D01*
X61965808Y-82613289D01*
X61943293Y-82474146D01*
X61901669Y-82384304D01*
X61871238Y-82344697D01*
X61865605Y-82282493D01*
X61907380Y-82282935D01*
G37*
G36*
X61721591Y-83998365D02*
G01*
X61737578Y-84113310D01*
X61747128Y-84219282D01*
X61803457Y-84288366D01*
X61941477Y-84327131D01*
X62085931Y-84370628D01*
X62140591Y-84421449D01*
X62093482Y-84457352D01*
X61944188Y-84458189D01*
X61828305Y-84450797D01*
X61753305Y-84480017D01*
X61725724Y-84570140D01*
X61701334Y-84653223D01*
X61651750Y-84689204D01*
X61621074Y-84654926D01*
X61611133Y-84550093D01*
X61612375Y-84538231D01*
X61579804Y-84434376D01*
X61450110Y-84353997D01*
X61376119Y-84318111D01*
X61305510Y-84253285D01*
X61339265Y-84214849D01*
X61474032Y-84221378D01*
X61511162Y-84227501D01*
X61598977Y-84215021D01*
X61621065Y-84129618D01*
X61631352Y-84055451D01*
X61679322Y-83973746D01*
X61680711Y-83972928D01*
X61721591Y-83998365D01*
G37*
G36*
X63957598Y-77726882D02*
G01*
X64057962Y-77733535D01*
X64169803Y-77804630D01*
X64188002Y-77829659D01*
X64234394Y-77922897D01*
X64223650Y-78022174D01*
X64153743Y-78174048D01*
X64033575Y-78310091D01*
X63873333Y-78345255D01*
X63696072Y-78270781D01*
X63677285Y-78255451D01*
X63617491Y-78147204D01*
X63612945Y-77993054D01*
X63660055Y-77993054D01*
X63675526Y-78038304D01*
X63760578Y-78128107D01*
X63875788Y-78198101D01*
X63970215Y-78212279D01*
X64048019Y-78138815D01*
X64091615Y-78007292D01*
X64071408Y-77885622D01*
X64054835Y-77871550D01*
X63957598Y-77862144D01*
X63825843Y-77888021D01*
X63709889Y-77936038D01*
X63660055Y-77993054D01*
X63612945Y-77993054D01*
X63612116Y-77964932D01*
X63617991Y-77898988D01*
X63644196Y-77784220D01*
X63714048Y-77736552D01*
X63863955Y-77720675D01*
X63957598Y-77726882D01*
G37*
G36*
X63966344Y-81673275D02*
G01*
X64108693Y-81700459D01*
X64199511Y-81753737D01*
X64209655Y-81772761D01*
X64219488Y-81910731D01*
X64166085Y-82078212D01*
X64062950Y-82228283D01*
X63988435Y-82295038D01*
X63908705Y-82310461D01*
X63789903Y-82255594D01*
X63690580Y-82163226D01*
X63617246Y-82006107D01*
X63613672Y-81966430D01*
X63668359Y-81966430D01*
X63715414Y-82050408D01*
X63782715Y-82102198D01*
X63917114Y-82129533D01*
X63959937Y-82116044D01*
X64036605Y-82037749D01*
X64067347Y-81929341D01*
X64045987Y-81833209D01*
X63966344Y-81791745D01*
X63881199Y-81807213D01*
X63746210Y-81872826D01*
X63713941Y-81897659D01*
X63668359Y-81966430D01*
X63613672Y-81966430D01*
X63602348Y-81840719D01*
X63657149Y-81713092D01*
X63673424Y-81700736D01*
X63793072Y-81670019D01*
X63955688Y-81671240D01*
X63966344Y-81673275D01*
G37*
G36*
X64020011Y-82392510D02*
G01*
X64069787Y-82397111D01*
X64167480Y-82468587D01*
X64214795Y-82534188D01*
X64235501Y-82591893D01*
X64217036Y-82670151D01*
X64158212Y-82813111D01*
X64135402Y-82863895D01*
X64046960Y-82982451D01*
X63927152Y-83006808D01*
X63747352Y-82946242D01*
X63652237Y-82887767D01*
X63612366Y-82799570D01*
X63613262Y-82677296D01*
X63680693Y-82677296D01*
X63753593Y-82785028D01*
X63849537Y-82854170D01*
X63969791Y-82865533D01*
X64034902Y-82805606D01*
X64067854Y-82653050D01*
X64062047Y-82549549D01*
X64020011Y-82501316D01*
X63907647Y-82517763D01*
X63855061Y-82531846D01*
X63712843Y-82595804D01*
X63680693Y-82677296D01*
X63613262Y-82677296D01*
X63613533Y-82640393D01*
X63619400Y-82568446D01*
X63645051Y-82453091D01*
X63714146Y-82403827D01*
X63861631Y-82384631D01*
X63904572Y-82381840D01*
X64020011Y-82392510D01*
G37*
G36*
X63845313Y-83165097D02*
G01*
X63882388Y-83275484D01*
X63915172Y-83374144D01*
X63984338Y-83430220D01*
X64016513Y-83433602D01*
X64126110Y-83452066D01*
X64135996Y-83454537D01*
X64213496Y-83473912D01*
X64221918Y-83478843D01*
X64242624Y-83547074D01*
X64242623Y-83547416D01*
X64190022Y-83587599D01*
X64038725Y-83579865D01*
X63905545Y-83565800D01*
X63846860Y-83594783D01*
X63834826Y-83685318D01*
X63822105Y-83779345D01*
X63776569Y-83859864D01*
X63774243Y-83861184D01*
X63733978Y-83833503D01*
X63718312Y-83716218D01*
X63717777Y-83687823D01*
X63682417Y-83555307D01*
X63572670Y-83481194D01*
X63528224Y-83462642D01*
X63438019Y-83398617D01*
X63458162Y-83350685D01*
X63587234Y-83333256D01*
X63708452Y-83312474D01*
X63748055Y-83234100D01*
X63752502Y-83187090D01*
X63791542Y-83132405D01*
X63845313Y-83165097D01*
G37*
G36*
X61722825Y-81566495D02*
G01*
X61758420Y-81531212D01*
X61888533Y-81500999D01*
X62017211Y-81567737D01*
X62042472Y-81611021D01*
X62072750Y-81741170D01*
X62086043Y-81908813D01*
X62082107Y-82075796D01*
X62060700Y-82203966D01*
X62021581Y-82255168D01*
X61983389Y-82217353D01*
X61986004Y-82094962D01*
X61994798Y-81964235D01*
X61971559Y-81818241D01*
X61966985Y-81806648D01*
X61935838Y-81763429D01*
X61903124Y-81808260D01*
X61857937Y-81954188D01*
X61823558Y-82063798D01*
X61766862Y-82162792D01*
X61700129Y-82172651D01*
X61655799Y-82156735D01*
X61587171Y-82138654D01*
X61585205Y-82138034D01*
X61569323Y-82077344D01*
X61562808Y-81947718D01*
X61566462Y-81913472D01*
X61691133Y-81913472D01*
X61705298Y-81982905D01*
X61721726Y-81975502D01*
X61744502Y-81860104D01*
X61748139Y-81836606D01*
X61752088Y-81730882D01*
X61722825Y-81722307D01*
X61694448Y-81785220D01*
X61691133Y-81913472D01*
X61566462Y-81913472D01*
X61577202Y-81812830D01*
X61647701Y-81640961D01*
X61722825Y-81566495D01*
G37*
G36*
X61774987Y-83096940D02*
G01*
X61848211Y-83081691D01*
X61980583Y-83167179D01*
X62021639Y-83214900D01*
X62072067Y-83353457D01*
X62087120Y-83574977D01*
X62083497Y-83687944D01*
X62061610Y-83832545D01*
X62024307Y-83886361D01*
X62019432Y-83885790D01*
X61982450Y-83825929D01*
X61974519Y-83697026D01*
X61976253Y-83670649D01*
X61981433Y-83470793D01*
X61966911Y-83374273D01*
X61934602Y-83385201D01*
X61886419Y-83507691D01*
X61869651Y-83558216D01*
X61795495Y-83697759D01*
X61703192Y-83740719D01*
X61677527Y-83737173D01*
X61602576Y-83665681D01*
X61582801Y-83583227D01*
X61678090Y-83583227D01*
X61700255Y-83590222D01*
X61700278Y-83590195D01*
X61726544Y-83521667D01*
X61760281Y-83391177D01*
X61771236Y-83338510D01*
X61774987Y-83270906D01*
X61740240Y-83303792D01*
X61734122Y-83313763D01*
X61700977Y-83402350D01*
X61680315Y-83506388D01*
X61678090Y-83583227D01*
X61582801Y-83583227D01*
X61570023Y-83529946D01*
X61583724Y-83366603D01*
X61647537Y-83212284D01*
X61740100Y-83104206D01*
X61774987Y-83096940D01*
G37*
G36*
X63820994Y-78792537D02*
G01*
X63955348Y-78797269D01*
X64140675Y-78915286D01*
X64147629Y-78921598D01*
X64230320Y-79064210D01*
X64224749Y-79222294D01*
X64131868Y-79349005D01*
X64095043Y-79376444D01*
X64053395Y-79444303D01*
X64102740Y-79538214D01*
X64147035Y-79604439D01*
X64182786Y-79694963D01*
X64145331Y-79707628D01*
X64042225Y-79630864D01*
X63995326Y-79594112D01*
X63822003Y-79505219D01*
X63622262Y-79445426D01*
X63509721Y-79421025D01*
X63357541Y-79372791D01*
X63278063Y-79326515D01*
X63284527Y-79291747D01*
X63390174Y-79278036D01*
X63451541Y-79275864D01*
X63522048Y-79246136D01*
X63514721Y-79162492D01*
X63517830Y-79102685D01*
X63660055Y-79102685D01*
X63681052Y-79182196D01*
X63778603Y-79278096D01*
X63913149Y-79317975D01*
X64037000Y-79279467D01*
X64111530Y-79185893D01*
X64103427Y-79072129D01*
X63984183Y-78977844D01*
X63820994Y-78939409D01*
X63704172Y-78983546D01*
X63660055Y-79102685D01*
X63517830Y-79102685D01*
X63520868Y-79044231D01*
X63628279Y-78896718D01*
X63788318Y-78791386D01*
X63820994Y-78792537D01*
G37*
G36*
X64087323Y-80919066D02*
G01*
X64125828Y-80922489D01*
X64198040Y-80947020D01*
X64220591Y-80983234D01*
X64236026Y-81063793D01*
X64206865Y-81181646D01*
X64127679Y-81369382D01*
X64075849Y-81468743D01*
X63958552Y-81595496D01*
X63830845Y-81606685D01*
X63691264Y-81502758D01*
X63633409Y-81411117D01*
X63619416Y-81268012D01*
X63718312Y-81268012D01*
X63718421Y-81274846D01*
X63765794Y-81389715D01*
X63868991Y-81429667D01*
X63983685Y-81376568D01*
X63988575Y-81371386D01*
X64053955Y-81253672D01*
X64100586Y-81091882D01*
X64106356Y-81054799D01*
X64110190Y-80957527D01*
X64087323Y-80948206D01*
X64010305Y-81008131D01*
X63878519Y-81078035D01*
X63772711Y-81148588D01*
X63718312Y-81268012D01*
X63619416Y-81268012D01*
X63613888Y-81211474D01*
X63622777Y-81142941D01*
X63612781Y-81067550D01*
X63544094Y-81038918D01*
X63387810Y-81034405D01*
X63318598Y-81032324D01*
X63187696Y-81013153D01*
X63135744Y-80980429D01*
X63138265Y-80974002D01*
X63211693Y-80946704D01*
X63363496Y-80925573D01*
X63562240Y-80911598D01*
X63776498Y-80905766D01*
X63974837Y-80909067D01*
X64087323Y-80919066D01*
G37*
G36*
X61960331Y-76595041D02*
G01*
X62051872Y-76608832D01*
X62203633Y-76625658D01*
X62306049Y-76634075D01*
X62392968Y-76644743D01*
X62433236Y-76660258D01*
X62440603Y-76705395D01*
X62375124Y-76750110D01*
X62261890Y-76770358D01*
X62169647Y-76775712D01*
X62101555Y-76821339D01*
X62087120Y-76945129D01*
X62075764Y-77027023D01*
X62008038Y-77180345D01*
X61904823Y-77302847D01*
X61795835Y-77352927D01*
X61728484Y-77324327D01*
X61625388Y-77240736D01*
X61556127Y-77130191D01*
X61556023Y-77092914D01*
X61659077Y-77092914D01*
X61724422Y-77167854D01*
X61827080Y-77155516D01*
X61938174Y-77048680D01*
X61996956Y-76956717D01*
X62024434Y-76862673D01*
X61977453Y-76803718D01*
X61960331Y-76797515D01*
X61867067Y-76824346D01*
X61760119Y-76905823D01*
X61677963Y-77006995D01*
X61659077Y-77092914D01*
X61556023Y-77092914D01*
X61555678Y-76968672D01*
X61656489Y-76823390D01*
X61713987Y-76762378D01*
X61728864Y-76685078D01*
X61650193Y-76653844D01*
X61609911Y-76646663D01*
X61562808Y-76590467D01*
X61564626Y-76580212D01*
X61635212Y-76553121D01*
X61810399Y-76571382D01*
X61857845Y-76579602D01*
X61960331Y-76595041D01*
G37*
G36*
X61823927Y-77412350D02*
G01*
X61993652Y-77440803D01*
X62082453Y-77513133D01*
X62119701Y-77599597D01*
X62144382Y-77781612D01*
X62114754Y-77951469D01*
X62034928Y-78061742D01*
X62007334Y-78079743D01*
X61958190Y-78139986D01*
X62005799Y-78212039D01*
X62038375Y-78261870D01*
X62078899Y-78417983D01*
X62084806Y-78606902D01*
X62051758Y-78775456D01*
X62016215Y-78825692D01*
X61904195Y-78864498D01*
X61769907Y-78836362D01*
X61658152Y-78744776D01*
X61584847Y-78672959D01*
X61509207Y-78660829D01*
X61470231Y-78662541D01*
X61446294Y-78583198D01*
X61450027Y-78526939D01*
X61496165Y-78440494D01*
X61587403Y-78455565D01*
X61714200Y-78572530D01*
X61821110Y-78688033D01*
X61909886Y-78740435D01*
X61956316Y-78689070D01*
X61968753Y-78532629D01*
X61933238Y-78308323D01*
X61836317Y-78162147D01*
X61687463Y-78110266D01*
X61612111Y-78093842D01*
X61562808Y-78022881D01*
X61588575Y-77958438D01*
X61673402Y-77939862D01*
X61776278Y-77997498D01*
X61823970Y-78017772D01*
X61914982Y-77981306D01*
X61994688Y-77887765D01*
X62028863Y-77768215D01*
X62007252Y-77666576D01*
X61895688Y-77563457D01*
X61696799Y-77527697D01*
X61679999Y-77527475D01*
X61555545Y-77508855D01*
X61504551Y-77469441D01*
X61515901Y-77452424D01*
X61608475Y-77422876D01*
X61763812Y-77411184D01*
X61823927Y-77412350D01*
G37*
D11*
%TO.C,D7*%
X184737500Y-33960000D02*
X184737500Y-30100000D01*
X186737500Y-33960000D02*
X184737500Y-33960000D01*
X186737500Y-33960000D02*
X186737500Y-30100000D01*
%TO.C,D5*%
X145050000Y-33960000D02*
X145050000Y-30100000D01*
X147050000Y-33960000D02*
X145050000Y-33960000D01*
X147050000Y-33960000D02*
X147050000Y-30100000D01*
%TO.C,U1*%
X82115000Y-85366250D02*
X82565000Y-85366250D01*
X88885000Y-85366250D02*
X88885000Y-86656250D01*
X89335000Y-85366250D02*
X88885000Y-85366250D01*
X82115000Y-84916250D02*
X82115000Y-85366250D01*
X89335000Y-84916250D02*
X89335000Y-85366250D01*
X82115000Y-78596250D02*
X82115000Y-78146250D01*
X89335000Y-78596250D02*
X89335000Y-78146250D01*
X82115000Y-78146250D02*
X82565000Y-78146250D01*
X89335000Y-78146250D02*
X88885000Y-78146250D01*
D10*
%TO.C,MX33*%
X109639824Y-84436030D02*
X109639824Y-84906030D01*
X109639824Y-81356030D02*
X109639824Y-81586030D01*
X109139824Y-85406030D02*
X104575000Y-85406030D01*
X108089824Y-81356030D02*
X109639824Y-81356030D01*
X100689824Y-81356030D02*
X106589824Y-81356030D01*
X98689824Y-87006030D02*
X98689824Y-87246030D01*
X98689824Y-84156030D02*
X98689824Y-83356030D01*
X109139824Y-85406030D02*
G75*
G03*
X109639824Y-84906030I-1J500001D01*
G01*
X104575000Y-85406030D02*
G75*
G03*
X102280678Y-87246030I-863J-2349335D01*
G01*
X100689824Y-81356030D02*
G75*
G03*
X98689824Y-83356030I5J-2000005D01*
G01*
D11*
%TO.C,D25*%
X145050000Y-72060000D02*
X145050000Y-68200000D01*
X147050000Y-72060000D02*
X145050000Y-72060000D01*
X147050000Y-72060000D02*
X147050000Y-68200000D01*
D10*
%TO.C,MX38*%
X206477324Y-84436030D02*
X206477324Y-84906030D01*
X206477324Y-81356030D02*
X206477324Y-81586030D01*
X205977324Y-85406030D02*
X201412500Y-85406030D01*
X204927324Y-81356030D02*
X206477324Y-81356030D01*
X197527324Y-81356030D02*
X203427324Y-81356030D01*
X195527324Y-87006030D02*
X195527324Y-87246030D01*
X195527324Y-84156030D02*
X195527324Y-83356030D01*
X205977324Y-85406030D02*
G75*
G03*
X206477324Y-84906030I-1J500001D01*
G01*
X201412500Y-85406030D02*
G75*
G03*
X199118178Y-87246030I-863J-2349335D01*
G01*
X197527324Y-81356030D02*
G75*
G03*
X195527324Y-83356030I5J-2000005D01*
G01*
%TO.C,MX10*%
X251543977Y-31145452D02*
X251478565Y-31610878D01*
X251972630Y-28095426D02*
X251940620Y-28323188D01*
X250913845Y-32036425D02*
X246393445Y-31401125D01*
X250437714Y-27879708D02*
X251972630Y-28095426D01*
X243109731Y-26849827D02*
X248952312Y-27670948D01*
X240342867Y-32166495D02*
X240309465Y-32404160D01*
X240739510Y-29344231D02*
X240850848Y-28552017D01*
X250913845Y-32036424D02*
G75*
G03*
X251478565Y-31610878I69586J495134D01*
G01*
X246393445Y-31401125D02*
G75*
G03*
X243865374Y-32903910I-327818J-2326351D01*
G01*
X243109731Y-26849827D02*
G75*
G03*
X240850849Y-28552017I-278342J-1980542D01*
G01*
D11*
%TO.C,D14*%
X126000000Y-53010000D02*
X126000000Y-49150000D01*
X128000000Y-53010000D02*
X126000000Y-53010000D01*
X128000000Y-53010000D02*
X128000000Y-49150000D01*
D10*
%TO.C,MX18*%
X206477324Y-46336030D02*
X206477324Y-46806030D01*
X206477324Y-43256030D02*
X206477324Y-43486030D01*
X205977324Y-47306030D02*
X201412500Y-47306030D01*
X204927324Y-43256030D02*
X206477324Y-43256030D01*
X197527324Y-43256030D02*
X203427324Y-43256030D01*
X195527324Y-48906030D02*
X195527324Y-49146030D01*
X195527324Y-46056030D02*
X195527324Y-45256030D01*
X205977324Y-47306030D02*
G75*
G03*
X206477324Y-46806030I-1J500001D01*
G01*
X201412500Y-47306030D02*
G75*
G03*
X199118178Y-49146030I-863J-2349335D01*
G01*
X197527324Y-43256030D02*
G75*
G03*
X195527324Y-45256030I5J-2000005D01*
G01*
D11*
%TO.C,D9*%
X226012500Y-34753750D02*
X226012500Y-30893750D01*
X228012500Y-34753750D02*
X226012500Y-34753750D01*
X228012500Y-34753750D02*
X228012500Y-30893750D01*
%TO.C,C9*%
X80309330Y-78168211D02*
X80028170Y-78168211D01*
X80309330Y-77148211D02*
X80028170Y-77148211D01*
D10*
%TO.C,MX32*%
X128485176Y-91776470D02*
X128485176Y-91306470D01*
X128485176Y-94856470D02*
X128485176Y-94626470D01*
X128985176Y-90806470D02*
X133550000Y-90806470D01*
X130035176Y-94856470D02*
X128485176Y-94856470D01*
X137435176Y-94856470D02*
X131535176Y-94856470D01*
X139435176Y-89206470D02*
X139435176Y-88966470D01*
X139435176Y-92056470D02*
X139435176Y-92856470D01*
X128985176Y-90806470D02*
G75*
G03*
X128485176Y-91306470I1J-500001D01*
G01*
X133550000Y-90806470D02*
G75*
G03*
X135844322Y-88966470I863J2349335D01*
G01*
X137435176Y-94856470D02*
G75*
G03*
X139435176Y-92856470I-5J2000005D01*
G01*
%TO.C,MX31*%
X72317431Y-86390319D02*
X72382842Y-86855745D01*
X71888778Y-83340293D02*
X71920788Y-83568055D01*
X71957295Y-87420465D02*
X67436895Y-88055766D01*
X70353862Y-83556011D02*
X71888778Y-83340293D01*
X63025879Y-84585892D02*
X68868460Y-83764771D01*
X61831670Y-90459253D02*
X61865072Y-90696917D01*
X61435027Y-87636989D02*
X61323689Y-86844775D01*
X71957295Y-87420464D02*
G75*
G03*
X72382841Y-86855745I-69588J495134D01*
G01*
X67436895Y-88055767D02*
G75*
G03*
X65420980Y-90197167I326110J-2326591D01*
G01*
X63025879Y-84585893D02*
G75*
G03*
X61323689Y-86844775I278351J-1980540D01*
G01*
D11*
%TO.C,D35*%
X145050000Y-91110000D02*
X145050000Y-87250000D01*
X147050000Y-91110000D02*
X145050000Y-91110000D01*
X147050000Y-91110000D02*
X147050000Y-87250000D01*
%TO.C,D31*%
X70138466Y-93770479D02*
X70138466Y-89910479D01*
X72138466Y-93770479D02*
X70138466Y-93770479D01*
X72138466Y-93770479D02*
X72138466Y-89910479D01*
D10*
%TO.C,MX36*%
X168377324Y-84436030D02*
X168377324Y-84906030D01*
X168377324Y-81356030D02*
X168377324Y-81586030D01*
X167877324Y-85406030D02*
X163312500Y-85406030D01*
X166827324Y-81356030D02*
X168377324Y-81356030D01*
X159427324Y-81356030D02*
X165327324Y-81356030D01*
X157427324Y-87006030D02*
X157427324Y-87246030D01*
X157427324Y-84156030D02*
X157427324Y-83356030D01*
X167877324Y-85406030D02*
G75*
G03*
X168377324Y-84906030I-1J500001D01*
G01*
X163312500Y-85406030D02*
G75*
G03*
X161018178Y-87246030I-863J-2349335D01*
G01*
X159427324Y-81356030D02*
G75*
G03*
X157427324Y-83356030I5J-2000005D01*
G01*
%TO.C,MX11*%
X67025393Y-48636633D02*
X67090804Y-49102059D01*
X66596740Y-45586607D02*
X66628750Y-45814369D01*
X66665257Y-49666779D02*
X62144857Y-50302080D01*
X65061824Y-45802325D02*
X66596740Y-45586607D01*
X57733841Y-46832206D02*
X63576422Y-46011085D01*
X56539632Y-52705567D02*
X56573034Y-52943231D01*
X56142989Y-49883303D02*
X56031651Y-49091089D01*
X66665257Y-49666778D02*
G75*
G03*
X67090803Y-49102059I-69588J495134D01*
G01*
X62144857Y-50302081D02*
G75*
G03*
X60128942Y-52443481I326110J-2326591D01*
G01*
X57733841Y-46832207D02*
G75*
G03*
X56031651Y-49091089I278351J-1980540D01*
G01*
%TO.C,MX16*%
X168377324Y-46336030D02*
X168377324Y-46806030D01*
X168377324Y-43256030D02*
X168377324Y-43486030D01*
X167877324Y-47306030D02*
X163312500Y-47306030D01*
X166827324Y-43256030D02*
X168377324Y-43256030D01*
X159427324Y-43256030D02*
X165327324Y-43256030D01*
X157427324Y-48906030D02*
X157427324Y-49146030D01*
X157427324Y-46056030D02*
X157427324Y-45256030D01*
X167877324Y-47306030D02*
G75*
G03*
X168377324Y-46806030I-1J500001D01*
G01*
X163312500Y-47306030D02*
G75*
G03*
X161018178Y-49146030I-863J-2349335D01*
G01*
X159427324Y-43256030D02*
G75*
G03*
X157427324Y-45256030I5J-2000005D01*
G01*
D11*
%TO.C,C7*%
X70133750Y-75528080D02*
X70133750Y-75246920D01*
X71153750Y-75528080D02*
X71153750Y-75246920D01*
%TO.C,D11*%
X64881250Y-55391250D02*
X64881250Y-51531250D01*
X66881250Y-55391250D02*
X64881250Y-55391250D01*
X66881250Y-55391250D02*
X66881250Y-51531250D01*
D10*
%TO.C,MX25*%
X147739824Y-65386030D02*
X147739824Y-65856030D01*
X147739824Y-62306030D02*
X147739824Y-62536030D01*
X147239824Y-66356030D02*
X142675000Y-66356030D01*
X146189824Y-62306030D02*
X147739824Y-62306030D01*
X138789824Y-62306030D02*
X144689824Y-62306030D01*
X136789824Y-67956030D02*
X136789824Y-68196030D01*
X136789824Y-65106030D02*
X136789824Y-64306030D01*
X147239824Y-66356030D02*
G75*
G03*
X147739824Y-65856030I-1J500001D01*
G01*
X142675000Y-66356030D02*
G75*
G03*
X140380678Y-68196030I-863J-2349335D01*
G01*
X138789824Y-62306030D02*
G75*
G03*
X136789824Y-64306030I5J-2000005D01*
G01*
%TO.C,MX9*%
X229046172Y-28440532D02*
X229013387Y-28909388D01*
X229261022Y-25368035D02*
X229244978Y-25597475D01*
X228479726Y-29373291D02*
X223926022Y-29054865D01*
X227714798Y-25259913D02*
X229261022Y-25368035D01*
X220332824Y-24743715D02*
X226218452Y-25155278D01*
X217943572Y-30240439D02*
X217926830Y-30479854D01*
X218142378Y-27397381D02*
X218198183Y-26599330D01*
X228479726Y-29373291D02*
G75*
G03*
X229013387Y-28909388I34878J498783D01*
G01*
X223926022Y-29054866D02*
G75*
G03*
X221508938Y-30730339I-164745J-2343548D01*
G01*
X220332824Y-24743715D02*
G75*
G03*
X218198183Y-26599330I-139508J-1995133D01*
G01*
D11*
%TO.C,D18*%
X203787500Y-53010000D02*
X203787500Y-49150000D01*
X205787500Y-53010000D02*
X203787500Y-53010000D01*
X205787500Y-53010000D02*
X205787500Y-49150000D01*
%TO.C,D13*%
X106950000Y-53010000D02*
X106950000Y-49150000D01*
X108950000Y-53010000D02*
X106950000Y-53010000D01*
X108950000Y-53010000D02*
X108950000Y-49150000D01*
%TO.C,D26*%
X165687500Y-72060000D02*
X165687500Y-68200000D01*
X167687500Y-72060000D02*
X165687500Y-72060000D01*
X167687500Y-72060000D02*
X167687500Y-68200000D01*
%TO.C,C5*%
X80309330Y-87028750D02*
X80028170Y-87028750D01*
X80309330Y-86008750D02*
X80028170Y-86008750D01*
D10*
%TO.C,MX19*%
X227770165Y-47444365D02*
X227737380Y-47913221D01*
X227985015Y-44371868D02*
X227968971Y-44601308D01*
X227203719Y-48377124D02*
X222650015Y-48058698D01*
X226438791Y-44263746D02*
X227985015Y-44371868D01*
X219056817Y-43747548D02*
X224942445Y-44159111D01*
X216667565Y-49244272D02*
X216650823Y-49483687D01*
X216866371Y-46401214D02*
X216922176Y-45603163D01*
X227203719Y-48377124D02*
G75*
G03*
X227737380Y-47913221I34878J498783D01*
G01*
X222650015Y-48058699D02*
G75*
G03*
X220232931Y-49734172I-164745J-2343548D01*
G01*
X219056817Y-43747548D02*
G75*
G03*
X216922176Y-45603163I-139508J-1995133D01*
G01*
%TO.C,MX13*%
X109639824Y-46336030D02*
X109639824Y-46806030D01*
X109639824Y-43256030D02*
X109639824Y-43486030D01*
X109139824Y-47306030D02*
X104575000Y-47306030D01*
X108089824Y-43256030D02*
X109639824Y-43256030D01*
X100689824Y-43256030D02*
X106589824Y-43256030D01*
X98689824Y-48906030D02*
X98689824Y-49146030D01*
X98689824Y-46056030D02*
X98689824Y-45256030D01*
X109139824Y-47306030D02*
G75*
G03*
X109639824Y-46806030I-1J500001D01*
G01*
X104575000Y-47306030D02*
G75*
G03*
X102280678Y-49146030I-863J-2349335D01*
G01*
X100689824Y-43256030D02*
G75*
G03*
X98689824Y-45256030I5J-2000005D01*
G01*
D11*
%TO.C,C1*%
X93008750Y-38240580D02*
X93008750Y-37959420D01*
X94028750Y-38240580D02*
X94028750Y-37959420D01*
D10*
%TO.C,MX6*%
X168377324Y-27286030D02*
X168377324Y-27756030D01*
X168377324Y-24206030D02*
X168377324Y-24436030D01*
X167877324Y-28256030D02*
X163312500Y-28256030D01*
X166827324Y-24206030D02*
X168377324Y-24206030D01*
X159427324Y-24206030D02*
X165327324Y-24206030D01*
X157427324Y-29856030D02*
X157427324Y-30096030D01*
X157427324Y-27006030D02*
X157427324Y-26206030D01*
X167877324Y-28256030D02*
G75*
G03*
X168377324Y-27756030I-1J500001D01*
G01*
X163312500Y-28256030D02*
G75*
G03*
X161018178Y-30096030I-863J-2349335D01*
G01*
X159427324Y-24206030D02*
G75*
G03*
X157427324Y-26206030I5J-2000005D01*
G01*
%TD*%
M02*
