M48
; DRILL file {KiCad (7.0.0)} date Sat Aug 19 14:18:30 2023
; FORMAT={-:-/ absolute / inch / decimal}
; #@! TF.CreationDate,2023-08-19T14:18:30+02:00
; #@! TF.GenerationSoftware,Kicad,Pcbnew,(7.0.0)
; #@! TF.FileFunction,Plated,1,2,PTH
FMAT,2
INCH
; #@! TA.AperFunction,Plated,PTH,ViaDrill
T1C0.0157
; #@! TA.AperFunction,Plated,PTH,ComponentDrill
T2C0.0394
; #@! TA.AperFunction,Plated,PTH,ComponentDrill
T3C0.1181
%
G90
G05
T1
X2.6691Y-2.9357
X2.8044Y-2.1059
X2.8228Y-2.8708
X2.8886Y-2.9439
X2.9062Y-3.0316
X2.9578Y-2.106
X2.9688Y-2.8314
X2.9688Y-2.8708
X2.9692Y-2.7916
X3.0359Y-2.9712
X3.0764Y-3.4067
X3.0814Y-3.1814
X3.0816Y-3.057
X3.0823Y-3.2675
X3.1875Y-3.0
X3.2217Y-3.3717
X3.238Y-2.9455
X3.2819Y-2.9455
X3.3274Y-2.9457
X3.3438Y-3.1875
X3.374Y-3.3125
X3.3745Y-2.9461
X3.375Y-1.4688
X3.4232Y-3.1302
X3.4232Y-3.3073
X3.5181Y-3.3965
X3.5219Y-3.0216
X3.6663Y-3.4058
X3.6694Y-3.055
X3.8125Y-1.3385
X3.8125Y-1.5938
X4.409Y-2.8125
X4.5371Y-2.8125
X6.4375Y-2.5312
X6.5625Y-2.75
T2
X2.7485Y-2.2419
X2.7485Y-2.3419
X2.7485Y-2.4419
T3
X2.2015Y-1.2641
X2.3068Y-2.0064
X2.41Y-2.7498
X2.4352Y-1.1303
X2.5151Y-3.4928
X2.5404Y-1.8726
X2.6436Y-2.616
X2.7488Y-3.359
X3.0824Y-1.1607
X3.1349Y-1.9085
X3.1881Y-2.6573
X3.3248Y-1.0435
X3.3774Y-1.7913
X3.4305Y-2.5401
X3.975Y-1.1187
X3.975Y-1.8687
X3.975Y-2.6187
X3.975Y-3.3687
X4.225Y-1.0188
X4.225Y-1.7688
X4.225Y-2.5187
X4.225Y-3.2687
X4.725Y-1.1187
X4.725Y-1.8687
X4.725Y-2.6187
X4.725Y-3.3687
X4.975Y-1.0188
X4.975Y-1.7688
X4.975Y-2.5187
X4.975Y-3.2687
X5.15Y-3.6687
X5.4Y-3.5688
X5.475Y-1.1187
X5.475Y-1.8687
X5.475Y-2.6187
X5.475Y-3.3687
X5.725Y-1.0188
X5.725Y-1.7688
X5.725Y-2.5187
X5.725Y-3.2687
X6.2875Y-1.1187
X6.2875Y-1.8687
X6.2875Y-2.6187
X6.2875Y-3.3687
X6.5375Y-1.0188
X6.5375Y-1.7688
X6.5375Y-2.5187
X6.5375Y-3.2687
X6.7125Y-3.6687
X6.9625Y-3.5688
X7.0375Y-1.1187
X7.0375Y-1.8687
X7.0375Y-2.6187
X7.0375Y-3.3687
X7.2875Y-1.0188
X7.2875Y-1.7688
X7.2875Y-2.5187
X7.2875Y-3.2687
X7.7875Y-1.1187
X7.7875Y-1.8687
X7.7875Y-2.6187
X7.7875Y-3.3687
X8.0375Y-1.0188
X8.0375Y-1.7688
X8.0375Y-2.5187
X8.0375Y-3.2687
X8.57Y-2.6354
X8.6235Y-1.8885
X8.6738Y-1.1403
X8.8264Y-2.553
X8.8799Y-1.8061
X8.9301Y-1.058
X9.2464Y-3.4504
X9.3503Y-2.7078
X9.4552Y-1.9652
X9.5079Y-3.3862
X9.5589Y-1.2227
X9.6118Y-2.6436
X9.7167Y-1.9009
X9.8204Y-1.1585
T0
M30
