M48
; DRILL file {KiCad (7.0.0)} date Sat Aug 19 14:18:30 2023
; FORMAT={-:-/ absolute / inch / decimal}
; #@! TF.CreationDate,2023-08-19T14:18:30+02:00
; #@! TF.GenerationSoftware,Kicad,Pcbnew,(7.0.0)
; #@! TF.FileFunction,NonPlated,1,2,NPTH
FMAT,2
INCH
; #@! TA.AperFunction,NonPlated,NPTH,ComponentDrill
T1C0.0295
; #@! TA.AperFunction,NonPlated,NPTH,ComponentDrill
T2C0.0689
; #@! TA.AperFunction,NonPlated,NPTH,ComponentDrill
T3C0.1200
; #@! TA.AperFunction,NonPlated,NPTH,ComponentDrill
T4C0.1570
%
G90
G05
T1
X5.9996Y-3.6739
X5.9996Y-3.7239
X5.9996Y-3.7739
X5.9996Y-3.8239
X6.0Y-0.8625
X6.0Y-0.9125
X6.0Y-0.9625
X6.0Y-1.0125
X6.0567Y-3.6744
X6.0567Y-3.7244
X6.0567Y-3.7744
X6.0567Y-3.8244
X6.0571Y-0.863
X6.0571Y-0.913
X6.0571Y-0.963
X6.0571Y-1.013
T2
X2.1659Y-1.3701
X2.2712Y-2.1124
X2.3744Y-2.8558
X2.4795Y-3.5988
X2.562Y-1.3144
X2.6673Y-2.0567
X2.7705Y-2.8002
X2.8756Y-3.5431
X3.0395Y-1.264
X3.092Y-2.0118
X3.1452Y-2.7605
X3.4385Y-1.236
X3.4911Y-1.9839
X3.5442Y-2.7326
X3.925Y-1.2188
X3.925Y-1.9688
X3.925Y-2.7188
X3.925Y-3.4688
X4.325Y-1.2188
X4.325Y-1.9688
X4.325Y-2.7188
X4.325Y-3.4688
X4.675Y-1.2188
X4.675Y-1.9688
X4.675Y-2.7188
X4.675Y-3.4688
X5.05Y-3.4688
X5.075Y-1.2188
X5.075Y-1.9688
X5.075Y-2.7188
X5.075Y-3.4688
X5.425Y-1.2188
X5.425Y-1.9688
X5.425Y-2.7188
X5.425Y-3.4688
X5.45Y-3.4688
X5.825Y-1.2188
X5.825Y-1.9688
X5.825Y-2.7188
X5.825Y-3.4688
X6.2375Y-1.2188
X6.2375Y-1.9688
X6.2375Y-2.7188
X6.2375Y-3.4688
X6.6125Y-3.4688
X6.6375Y-1.2188
X6.6375Y-1.9688
X6.6375Y-2.7188
X6.6375Y-3.4688
X6.9875Y-1.2188
X6.9875Y-1.9688
X6.9875Y-2.7188
X6.9875Y-3.4688
X7.0125Y-3.4688
X7.3875Y-1.2188
X7.3875Y-1.9688
X7.3875Y-2.7188
X7.3875Y-3.4688
X7.7375Y-1.2188
X7.7375Y-1.9688
X7.7375Y-2.7188
X7.7375Y-3.4688
X8.1375Y-1.2188
X8.1375Y-1.9688
X8.1375Y-2.7188
X8.1375Y-3.4688
X8.5131Y-2.7316
X8.5667Y-1.9847
X8.6169Y-1.2365
X8.9122Y-2.7595
X8.9657Y-2.0126
X9.0159Y-1.2644
X9.183Y-3.5425
X9.2869Y-2.7999
X9.3918Y-2.0572
X9.4955Y-1.3148
X9.5791Y-3.5982
X9.683Y-2.8555
X9.7879Y-2.1129
X9.8916Y-1.3705
T3
X4.7812Y-3.7437
X5.7188Y-3.7437
X6.3438Y-3.7437
X7.2812Y-3.7437
T4
X2.364Y-1.3423
X2.4692Y-2.0846
X2.5724Y-2.828
X2.6776Y-3.5709
X3.239Y-1.25
X3.2916Y-1.9978
X3.3447Y-2.7466
X4.125Y-1.2188
X4.125Y-1.9688
X4.125Y-2.7188
X4.125Y-3.4688
X4.7812Y-3.1437
X4.875Y-1.2188
X4.875Y-1.9688
X4.875Y-2.7188
X4.875Y-3.4688
X5.25Y-3.4688
X5.625Y-1.2188
X5.625Y-1.9688
X5.625Y-2.7188
X5.625Y-3.4688
X5.7188Y-3.1437
X6.3438Y-3.1437
X6.4375Y-1.2188
X6.4375Y-1.9688
X6.4375Y-2.7188
X6.4375Y-3.4688
X6.8125Y-3.4688
X7.1875Y-1.2188
X7.1875Y-1.9688
X7.1875Y-2.7188
X7.1875Y-3.4688
X7.2812Y-3.1437
X7.9375Y-1.2188
X7.9375Y-1.9688
X7.9375Y-2.7188
X7.9375Y-3.4688
X8.7127Y-2.7456
X8.7662Y-1.9987
X8.8164Y-1.2505
X9.381Y-3.5703
X9.4849Y-2.8277
X9.5898Y-2.0851
X9.6935Y-1.3426
T0
M30
