%TF.GenerationSoftware,KiCad,Pcbnew,(7.0.0)*%
%TF.CreationDate,2023-09-12T00:14:53+02:00*%
%TF.ProjectId,tinyv pcb,74696e79-7620-4706-9362-2e6b69636164,rev?*%
%TF.SameCoordinates,Original*%
%TF.FileFunction,Soldermask,Top*%
%TF.FilePolarity,Negative*%
%FSLAX46Y46*%
G04 Gerber Fmt 4.6, Leading zero omitted, Abs format (unit mm)*
G04 Created by KiCad (PCBNEW (7.0.0)) date 2023-09-12 00:14:53*
%MOMM*%
%LPD*%
G01*
G04 APERTURE LIST*
%ADD10C,0.500000*%
%ADD11C,3.048000*%
%ADD12C,3.987800*%
%ADD13C,1.750000*%
%ADD14C,3.300000*%
%ADD15R,1.700000X1.700000*%
%ADD16O,1.700000X1.700000*%
G04 APERTURE END LIST*
D10*
%TO.C,REF\u002A\u002A*%
X153852401Y-25082869D03*
X153851778Y-25721491D03*
X153851778Y-24451491D03*
X153851778Y-23816491D03*
X153851778Y-23181491D03*
X153851778Y-22549229D03*
X153851778Y-21911491D03*
X153849770Y-21403402D03*
X153727271Y-26180756D03*
%TD*%
%TO.C,REF\u002A\u002A*%
X152386158Y-93979630D03*
X152386781Y-93341008D03*
X152386781Y-94611008D03*
X152386781Y-95246008D03*
X152386781Y-95881008D03*
X152386781Y-96513270D03*
X152386781Y-97151008D03*
X152399335Y-97645060D03*
X152506338Y-92882008D03*
%TD*%
%TO.C,REF\u002A\u002A*%
X152396427Y-21399073D03*
X152399377Y-22546122D03*
X152400000Y-21907500D03*
X152400000Y-23177500D03*
X152400000Y-23812500D03*
X152400000Y-24447500D03*
X152400000Y-25079762D03*
X152400000Y-25717500D03*
X152519557Y-26204434D03*
%TD*%
D11*
%TO.C,S1*%
X145256250Y-95091250D03*
D12*
X145256250Y-79851250D03*
D11*
X121443750Y-95091250D03*
D12*
X121443750Y-79851250D03*
%TD*%
D11*
%TO.C,S2*%
X184943750Y-95091250D03*
D12*
X184943750Y-79851250D03*
D11*
X161131250Y-95091250D03*
D12*
X161131250Y-79851250D03*
%TD*%
D10*
%TO.C,REF\u002A\u002A*%
X153856393Y-96520369D03*
X153855770Y-97158991D03*
X153855770Y-95888991D03*
X153855770Y-95253991D03*
X153855770Y-94618991D03*
X153855770Y-93986729D03*
X153855770Y-93348991D03*
X153852856Y-97663138D03*
X153727031Y-92862294D03*
%TD*%
D13*
%TO.C,MX4*%
X128905000Y-30956250D03*
D12*
X123825000Y-30956250D03*
D13*
X118745000Y-30956250D03*
D14*
X120015000Y-28416250D03*
X126365000Y-25876250D03*
%TD*%
D13*
%TO.C,MX23*%
X109855000Y-69056250D03*
D12*
X104775000Y-69056250D03*
D13*
X99695000Y-69056250D03*
D14*
X100965000Y-66516250D03*
X107315000Y-63976250D03*
%TD*%
D13*
%TO.C,MX12*%
X88673028Y-50390124D03*
D12*
X83605403Y-50744487D03*
D13*
X78537778Y-51098850D03*
D14*
X79627503Y-48476446D03*
X85784853Y-45499680D03*
%TD*%
D13*
%TO.C,MX34*%
X128905000Y-88106250D03*
D12*
X123825000Y-88106250D03*
D13*
X118745000Y-88106250D03*
D14*
X120015000Y-85566250D03*
X126365000Y-83026250D03*
%TD*%
D13*
%TO.C,MX8*%
X206692500Y-30956250D03*
D12*
X201612500Y-30956250D03*
D13*
X196532500Y-30956250D03*
D14*
X197802500Y-28416250D03*
X204152500Y-25876250D03*
%TD*%
D13*
%TO.C,MX40*%
X243308750Y-91393854D03*
D12*
X238278188Y-90686855D03*
D13*
X233247626Y-89979856D03*
D14*
X234858766Y-87641325D03*
X241500468Y-86009793D03*
%TD*%
D13*
%TO.C,MX15*%
X147955000Y-50006250D03*
D12*
X142875000Y-50006250D03*
D13*
X137795000Y-50006250D03*
D14*
X139065000Y-47466250D03*
X145415000Y-44926250D03*
%TD*%
D13*
%TO.C,MX27*%
X187642500Y-69056250D03*
D12*
X182562500Y-69056250D03*
D13*
X177482500Y-69056250D03*
D14*
X178752500Y-66516250D03*
X185102500Y-63976250D03*
%TD*%
D13*
%TO.C,MX1*%
X65075218Y-33386871D03*
D12*
X60044656Y-34093870D03*
D13*
X55014094Y-34800869D03*
D14*
X55918235Y-32108839D03*
X61852938Y-28709809D03*
%TD*%
D13*
%TO.C,MX17*%
X187642500Y-50006250D03*
D12*
X182562500Y-50006250D03*
D13*
X177482500Y-50006250D03*
D14*
X178752500Y-47466250D03*
X185102500Y-44926250D03*
%TD*%
D15*
%TO.C,J3*%
X69811963Y-56944999D03*
D16*
X69811963Y-59484999D03*
X69811963Y-62024999D03*
%TD*%
D13*
%TO.C,MX14*%
X128905000Y-50006250D03*
D12*
X123825000Y-50006250D03*
D13*
X118745000Y-50006250D03*
D14*
X120015000Y-47466250D03*
X126365000Y-44926250D03*
%TD*%
D13*
%TO.C,MX22*%
X90023794Y-69408418D03*
D12*
X84956169Y-69762781D03*
D13*
X79888544Y-70117144D03*
D14*
X80978269Y-67494740D03*
X87135619Y-64517974D03*
%TD*%
D13*
%TO.C,MX3*%
X109855000Y-30956250D03*
D12*
X104775000Y-30956250D03*
D13*
X99695000Y-30956250D03*
D14*
X100965000Y-28416250D03*
X107315000Y-25876250D03*
%TD*%
D13*
%TO.C,MX28*%
X206692500Y-69056250D03*
D12*
X201612500Y-69056250D03*
D13*
X196532500Y-69056250D03*
D14*
X197802500Y-66516250D03*
X204152500Y-63976250D03*
%TD*%
D13*
%TO.C,MX39*%
X167957500Y-88106250D03*
D12*
X173037500Y-88106250D03*
D13*
X178117500Y-88106250D03*
D14*
X176847500Y-90646250D03*
X170497500Y-93186250D03*
%TD*%
D13*
%TO.C,MX30*%
X245947982Y-72530750D03*
D12*
X240917420Y-71823751D03*
D13*
X235886858Y-71116752D03*
D14*
X237497998Y-68778221D03*
X244139700Y-67146689D03*
%TD*%
D13*
%TO.C,MX29*%
X226369242Y-70092225D03*
D12*
X221301617Y-69737862D03*
D13*
X216233992Y-69383499D03*
D14*
X217678079Y-66938277D03*
X224189793Y-64847418D03*
%TD*%
D13*
%TO.C,MX35*%
X147955000Y-88106250D03*
D12*
X142875000Y-88106250D03*
D13*
X137795000Y-88106250D03*
D14*
X139065000Y-85566250D03*
X145415000Y-83026250D03*
%TD*%
D13*
%TO.C,MX20*%
X248612134Y-53667645D03*
D12*
X243581572Y-52960646D03*
D13*
X238551010Y-52253647D03*
D14*
X240162150Y-49915116D03*
X246803852Y-48283584D03*
%TD*%
D13*
%TO.C,MX24*%
X128905000Y-69056250D03*
D12*
X123825000Y-69056250D03*
D13*
X118745000Y-69056250D03*
D14*
X120015000Y-66516250D03*
X126365000Y-63976250D03*
%TD*%
D13*
%TO.C,MX26*%
X168592500Y-69056250D03*
D12*
X163512500Y-69056250D03*
D13*
X158432500Y-69056250D03*
D14*
X159702500Y-66516250D03*
X166052500Y-63976250D03*
%TD*%
D13*
%TO.C,MX5*%
X147955000Y-30956250D03*
D12*
X142875000Y-30956250D03*
D13*
X137795000Y-30956250D03*
D14*
X139065000Y-28416250D03*
X145415000Y-25876250D03*
%TD*%
D13*
%TO.C,MX37*%
X187642500Y-88106250D03*
D12*
X182562500Y-88106250D03*
D13*
X177482500Y-88106250D03*
D14*
X178752500Y-85566250D03*
X185102500Y-83026250D03*
%TD*%
D13*
%TO.C,MX7*%
X187642500Y-30956250D03*
D12*
X182562500Y-30956250D03*
D13*
X177482500Y-30956250D03*
D14*
X178752500Y-28416250D03*
X185102500Y-25876250D03*
%TD*%
D13*
%TO.C,MX2*%
X87337281Y-31395636D03*
D12*
X82269656Y-31749999D03*
D13*
X77202031Y-32104362D03*
D14*
X78291756Y-29481958D03*
X84449106Y-26505192D03*
%TD*%
D13*
%TO.C,MX21*%
X70369814Y-71124095D03*
D12*
X65339252Y-71831094D03*
D13*
X60308690Y-72538093D03*
D14*
X61212831Y-69846063D03*
X67147534Y-66447033D03*
%TD*%
D13*
%TO.C,MX33*%
X109855000Y-88106250D03*
D12*
X104775000Y-88106250D03*
D13*
X99695000Y-88106250D03*
D14*
X100965000Y-85566250D03*
X107315000Y-83026250D03*
%TD*%
D13*
%TO.C,MX38*%
X206692500Y-88106250D03*
D12*
X201612500Y-88106250D03*
D13*
X196532500Y-88106250D03*
D14*
X197802500Y-85566250D03*
X204152500Y-83026250D03*
%TD*%
D13*
%TO.C,MX10*%
X251246263Y-34809900D03*
D12*
X246215701Y-34102901D03*
D13*
X241185139Y-33395902D03*
D14*
X242796279Y-31057371D03*
X249437981Y-29425839D03*
%TD*%
D13*
%TO.C,MX18*%
X206692500Y-50006250D03*
D12*
X201612500Y-50006250D03*
D13*
X196532500Y-50006250D03*
D14*
X197802500Y-47466250D03*
X204152500Y-44926250D03*
%TD*%
D13*
%TO.C,MX32*%
X128270000Y-88106250D03*
D12*
X133350000Y-88106250D03*
D13*
X138430000Y-88106250D03*
D14*
X137160000Y-90646250D03*
X130810000Y-93186250D03*
%TD*%
D13*
%TO.C,MX31*%
X73041309Y-89994874D03*
D12*
X68010747Y-90701873D03*
D13*
X62980185Y-91408872D03*
D14*
X63884326Y-88716842D03*
X69819029Y-85317812D03*
%TD*%
D13*
%TO.C,MX36*%
X168592500Y-88106250D03*
D12*
X163512500Y-88106250D03*
D13*
X158432500Y-88106250D03*
D14*
X159702500Y-85566250D03*
X166052500Y-83026250D03*
%TD*%
D13*
%TO.C,MX11*%
X67749271Y-52241188D03*
D12*
X62718709Y-52948187D03*
D13*
X57688147Y-53655186D03*
D14*
X58592288Y-50963156D03*
X64526991Y-47564126D03*
%TD*%
D13*
%TO.C,MX16*%
X168592500Y-50006250D03*
D12*
X163512500Y-50006250D03*
D13*
X158432500Y-50006250D03*
D14*
X159702500Y-47466250D03*
X166052500Y-44926250D03*
%TD*%
D13*
%TO.C,MX25*%
X147955000Y-69056250D03*
D12*
X142875000Y-69056250D03*
D13*
X137795000Y-69056250D03*
D14*
X139065000Y-66516250D03*
X145415000Y-63976250D03*
%TD*%
D13*
%TO.C,MX9*%
X229004802Y-32116822D03*
D12*
X223937177Y-31762459D03*
D13*
X218869552Y-31408096D03*
D14*
X220313639Y-28962874D03*
X226825353Y-26872015D03*
%TD*%
D13*
%TO.C,MX19*%
X227728795Y-51120655D03*
D12*
X222661170Y-50766292D03*
D13*
X217593545Y-50411929D03*
D14*
X219037632Y-47966707D03*
X225549346Y-45875848D03*
%TD*%
D13*
%TO.C,MX13*%
X109855000Y-50006250D03*
D12*
X104775000Y-50006250D03*
D13*
X99695000Y-50006250D03*
D14*
X100965000Y-47466250D03*
X107315000Y-44926250D03*
%TD*%
D13*
%TO.C,MX6*%
X168592500Y-30956250D03*
D12*
X163512500Y-30956250D03*
D13*
X158432500Y-30956250D03*
D14*
X159702500Y-28416250D03*
X166052500Y-25876250D03*
%TD*%
M02*
